<?xml version="1.0" encoding="UTF-8"?>
<svg xmlns="http://www.w3.org/2000/svg" xmlns:xlink="http://www.w3.org/1999/xlink" width="2048px" height="2048px" viewBox="0 0 2048 2048" version="1.1">
<g id="surface1">
<path style=" stroke:none;fill-rule:nonzero;fill:rgb(20.392157%,65.882355%,32.549021%);fill-opacity:1;" d="M 2042.28125 1958.84375 C 2041.609375 1951.6875 2040.96875 1944.609375 2040.265625 1937.53125 C 2036.046875 1893.65625 2030.78125 1850.28125 2024.65625 1807.515625 C 2013.921875 1732.78125 2000.40625 1659.84375 1984.28125 1589.203125 C 1970.65625 1529.390625 1955.140625 1471.1875 1937.921875 1414.78125 C 1915.765625 1342.359375 1890.796875 1272.828125 1863.1875 1206.703125 C 1829.359375 1125.671875 1791.5625 1049.75 1750.3125 979.796875 C 1733 950.390625 1715.078125 922.03125 1696.578125 894.84375 C 1656.515625 835.796875 1613.703125 782.03125 1568.609375 733.96875 C 1569 732.859375 1569.34375 731.671875 1569.734375 730.5625 C 1590.390625 669.640625 1611.109375 608.796875 1631.765625 547.875 C 1651.96875 488.40625 1672.171875 428.921875 1692.375 369.453125 C 1706.921875 326.765625 1721.4375 283.984375 1735.890625 241.296875 C 1739.328125 231.15625 1742.03125 220.671875 1744.078125 209.9375 C 1749.734375 180.03125 1749.984375 148.59375 1745.4375 119.359375 C 1744.28125 112.125 1742.890625 105.046875 1741.1875 98.140625 C 1739.484375 91.234375 1737.5 84.515625 1735.25 78.03125 C 1727.53125 55.890625 1716.484375 36.625 1702.609375 22.5625 C 1690.34375 10.125 1676.625 2.703125 1662.5625 0.578125 C 1656.65625 -0.265625 1650.734375 -0.1875 1644.828125 0.828125 C 1639.953125 1.6875 1635.125 3.21875 1630.3125 5.359375 C 1613.21875 13.109375 1597.328125 29.125 1584.984375 52.296875 C 1580.53125 60.65625 1576.515625 69.859375 1573.078125 80 C 1558.5625 122.6875 1544.0625 165.453125 1529.578125 208.15625 L 1468.96875 386.578125 C 1448.3125 447.5 1427.578125 508.34375 1406.921875 569.265625 C 1404.671875 575.90625 1402.390625 582.546875 1400.140625 589.28125 C 1397 587.15625 1393.90625 585.03125 1390.765625 582.984375 C 1276.859375 508.84375 1153.265625 468.296875 1024.078125 468.296875 C 1020.546875 468.296875 1017.046875 468.296875 1013.484375 468.375 C 898.625 470.328125 788.28125 504.421875 685.3125 565.59375 C 673.421875 572.671875 661.640625 580.171875 649.953125 588.015625 C 647.859375 581.796875 645.703125 575.5625 643.625 569.34375 C 622.96875 508.421875 602.25 447.578125 581.59375 386.65625 C 561.390625 327.1875 541.1875 267.703125 520.984375 208.234375 C 506.4375 165.546875 491.921875 122.765625 477.46875 80.078125 C 474 69.9375 470.015625 60.734375 465.578125 52.390625 C 453.21875 29.203125 437.34375 13.1875 420.25 5.4375 C 415.4375 3.3125 410.59375 1.78125 405.703125 0.921875 C 399.828125 -0.09375 393.890625 -0.1875 387.984375 0.671875 C 373.9375 2.703125 360.21875 10.125 347.921875 22.65625 C 334.046875 36.703125 323.09375 55.96875 315.296875 78.125 C 313.046875 84.59375 311.046875 91.328125 309.375 98.234375 C 307.671875 105.125 306.203125 112.203125 305.109375 119.453125 C 300.578125 148.671875 300.828125 180.109375 306.453125 210.03125 C 308.515625 220.765625 311.203125 231.234375 314.640625 241.375 C 329.171875 284.078125 343.6875 326.84375 358.140625 369.53125 C 378.375 429.015625 398.578125 488.484375 418.78125 547.953125 C 439.4375 608.890625 460.125 669.71875 480.796875 730.640625 C 480.9375 731.15625 481.15625 731.671875 481.3125 732.1875 C 439.625 776.40625 399.984375 825.40625 362.5625 879 C 340.125 911.125 318.53125 944.78125 297.84375 979.96875 C 256.609375 1049.921875 218.859375 1125.84375 184.953125 1206.875 C 157.328125 1273 132.328125 1342.4375 110.234375 1414.953125 C 93.015625 1471.359375 77.5 1529.5625 63.859375 1589.375 C 47.734375 1660.015625 34.234375 1732.953125 23.484375 1807.6875 C 17.375 1850.453125 12.171875 1893.75 7.875 1937.703125 C 7.1875 1944.78125 6.546875 1951.9375 5.90625 1959.015625 C 3.59375 1984.484375 1.640625 2010.140625 0 2035.953125 L 2048 2035.953125 C 2046.359375 2010.140625 2044.40625 1984.484375 2042.125 1959.015625 Z M 2042.28125 1958.84375 "/>
<path style=" stroke:none;fill-rule:nonzero;fill:rgb(12.54902%,12.941177%,14.117648%);fill-opacity:1;" d="M 1556.71875 1552.546875 C 1597.703125 1505.984375 1603.65625 1398.265625 1570.015625 1311.96875 C 1536.390625 1225.65625 1475.90625 1193.4375 1434.953125 1239.984375 C 1393.96875 1286.546875 1388 1394.265625 1421.65625 1480.578125 C 1455.265625 1566.890625 1515.765625 1599.109375 1556.71875 1552.546875 Z M 1556.71875 1552.546875 "/>
<path style=" stroke:none;fill-rule:nonzero;fill:rgb(12.54902%,12.941177%,14.117648%);fill-opacity:1;" d="M 628.140625 1480.875 C 661.796875 1394.5625 655.828125 1286.84375 614.84375 1240.296875 C 573.859375 1193.734375 513.40625 1225.953125 479.75 1312.265625 C 446.140625 1398.578125 452.09375 1506.28125 493.046875 1552.84375 C 534.03125 1599.40625 594.515625 1567.1875 628.140625 1480.875 Z M 628.140625 1480.875 "/>
</g>
</svg>
