<?xml version="1.0" encoding="UTF-8"?>
<svg xmlns="http://www.w3.org/2000/svg" xmlns:xlink="http://www.w3.org/1999/xlink" width="2048px" height="2048px" viewBox="0 0 2048 2048" version="1.1">
<g id="surface1">
<path style=" stroke:none;fill-rule:nonzero;fill:rgb(0%,59.215689%,61.176473%);fill-opacity:1;" d="M 112.359375 1534.8125 L 7.359375 2039.078125 L 89.96875 2039.078125 L 108.921875 1945.125 L 211.359375 1945.125 L 229.796875 2039.078125 L 319.640625 2039.078125 L 214.640625 1534.8125 Z M 129.6875 1843.6875 L 160.875 1686.84375 L 191.71875 1843.6875 Z M 129.6875 1843.6875 "/>
<path style=" stroke:none;fill-rule:nonzero;fill:rgb(0%,59.215689%,61.176473%);fill-opacity:1;" d="M 517.0625 1809.015625 C 515.8125 1807.0625 514.546875 1805.21875 513.265625 1803.484375 C 515.84375 1802.046875 518.375 1800.515625 520.828125 1798.84375 C 530.828125 1792.09375 539.59375 1783.046875 546.875 1772.015625 C 554.234375 1760.875 560.015625 1747.46875 564.0625 1732.125 C 568.0625 1716.984375 570.09375 1699.5625 570.09375 1680.421875 C 570.09375 1654.015625 566.84375 1631.1875 560.484375 1612.53125 C 554.046875 1593.65625 544.71875 1578.125 532.796875 1566.34375 C 521.21875 1554.921875 507.140625 1546.671875 490.9375 1541.84375 C 475.375 1537.1875 457.828125 1534.8125 438.828125 1534.8125 L 331.640625 1534.8125 L 331.640625 2039.078125 L 413.84375 2039.078125 L 413.84375 1842.046875 L 416.28125 1842.046875 C 425.28125 1842.046875 432.78125 1844.953125 439.203125 1850.953125 C 445.578125 1856.90625 450.46875 1865.671875 454.171875 1877.8125 L 503.84375 2039.078125 L 599.484375 2039.078125 L 539.125 1859.203125 C 531.8125 1837.34375 524.59375 1820.953125 517.0625 1809.015625 Z M 481.296875 1712.28125 C 478.921875 1718.9375 475.625 1724.40625 471.21875 1728.96875 C 466.578125 1733.765625 460.8125 1737.453125 454.0625 1739.921875 C 446.921875 1742.546875 438.796875 1743.875 429.859375 1743.875 L 413.84375 1743.875 L 413.84375 1637.71875 L 431.90625 1637.71875 C 450.734375 1637.71875 464.71875 1642.0625 473.46875 1650.640625 C 481.109375 1658.109375 484.8125 1670.703125 484.8125 1689.171875 C 484.8125 1698.09375 483.65625 1705.65625 481.296875 1712.28125 Z M 481.296875 1712.28125 "/>
<path style=" stroke:none;fill-rule:nonzero;fill:rgb(0%,59.215689%,61.176473%);fill-opacity:1;" d="M 840.3125 1594.703125 C 826.484375 1574.234375 809.03125 1558.90625 788.4375 1549.171875 C 768.375 1539.65625 744.765625 1534.8125 718.25 1534.8125 L 609.546875 1534.8125 L 609.546875 2039.078125 L 704.171875 2039.078125 C 734.71875 2039.078125 761.421875 2032.953125 783.5625 2020.890625 C 806.046875 2008.671875 824.8125 1990.921875 839.359375 1968.15625 C 853.859375 1945.4375 864.6875 1917.6875 871.484375 1885.671875 C 878.15625 1854.34375 881.53125 1819.109375 881.53125 1780.9375 C 881.53125 1739.328125 878.140625 1702.828125 871.453125 1672.453125 C 864.625 1641.328125 854.15625 1615.171875 840.3125 1594.703125 Z M 773.109375 1901.15625 C 758.84375 1924.484375 738.140625 1935.8125 709.8125 1935.8125 L 691.734375 1935.8125 L 691.734375 1638.078125 L 714.15625 1638.078125 C 730.015625 1638.078125 743.3125 1641.359375 753.6875 1647.875 C 763.75 1654.171875 771.53125 1663.0625 777.484375 1675.046875 C 783.5625 1687.34375 787.96875 1702.765625 790.578125 1720.84375 C 793.328125 1739.984375 794.734375 1762.15625 794.734375 1786.765625 C 794.734375 1839.234375 787.453125 1877.71875 773.109375 1901.15625 Z M 773.109375 1901.15625 "/>
<path style=" stroke:none;fill-rule:nonzero;fill:rgb(0%,59.215689%,61.176473%);fill-opacity:1;" d="M 1079.53125 1855.609375 C 1079.53125 1872.984375 1078.453125 1887.8125 1076.28125 1899.65625 C 1074.265625 1910.703125 1071.296875 1919.734375 1067.4375 1926.46875 C 1063.75 1932.953125 1059.21875 1937.53125 1053.625 1940.46875 C 1047.546875 1943.671875 1039.765625 1945.28125 1030.484375 1945.28125 C 1020.65625 1945.28125 1012.5625 1943.4375 1006.421875 1939.78125 C 1000.5 1936.25 995.75 1931.1875 991.875 1924.359375 C 987.984375 1917.46875 985.203125 1908.828125 983.59375 1898.640625 C 981.8125 1887.390625 980.90625 1874.140625 980.90625 1859.25 L 980.90625 1534.8125 L 898.71875 1534.8125 L 898.71875 1864.703125 C 898.71875 1891.96875 901.015625 1916.984375 905.515625 1939.0625 C 910.21875 1962 917.953125 1981.84375 928.546875 1997.984375 C 939.125 2014.109375 952.984375 2026.578125 969.734375 2035.015625 C 986 2043.265625 1005.65625 2047.453125 1028.171875 2047.453125 C 1048.28125 2047.453125 1066.75 2043.265625 1083.03125 2035.015625 C 1099.65625 2026.625 1114.015625 2013.90625 1125.65625 1997.1875 C 1137.328125 1980.453125 1146.375 1959.375 1152.5625 1934.578125 C 1158.640625 1910.203125 1161.734375 1881.671875 1161.734375 1849.765625 L 1161.734375 1534.8125 L 1079.53125 1534.8125 L 1079.53125 1855.609375 "/>
<path style=" stroke:none;fill-rule:nonzero;fill:rgb(0%,59.215689%,61.176473%);fill-opacity:1;" d="M 1203.765625 1636.265625 L 1277.515625 1636.265625 L 1277.515625 1936.90625 L 1203.765625 1936.90625 L 1203.765625 2039.078125 L 1434.5 2039.078125 L 1434.5 1936.90625 L 1360.75 1936.90625 L 1360.75 1636.265625 L 1434.5 1636.265625 L 1434.5 1534.8125 L 1203.765625 1534.8125 L 1203.765625 1636.265625 "/>
<path style=" stroke:none;fill-rule:nonzero;fill:rgb(0%,59.215689%,61.176473%);fill-opacity:1;" d="M 1663.234375 1822.140625 L 1571.359375 1534.8125 L 1478.3125 1534.8125 L 1478.3125 2039.078125 L 1554.875 2039.078125 L 1554.875 1746.28125 L 1647.25 2039.078125 L 1739.8125 2039.078125 L 1739.8125 1534.8125 L 1663.234375 1534.8125 L 1663.234375 1822.140625 "/>
<path style=" stroke:none;fill-rule:nonzero;fill:rgb(0%,59.215689%,61.176473%);fill-opacity:1;" d="M 2005.90625 1594.46875 C 1981.90625 1549.578125 1945.921875 1526.8125 1898.984375 1526.8125 C 1878.90625 1526.8125 1859.765625 1532.046875 1842.0625 1542.375 C 1824.125 1552.828125 1808.265625 1569.125 1794.921875 1590.828125 C 1781.71875 1612.34375 1771.21875 1640.015625 1763.75 1673.046875 C 1756.375 1705.671875 1752.625 1744.78125 1752.625 1789.3125 C 1752.625 1871.59375 1764.515625 1935.59375 1787.96875 1979.59375 C 1811.96875 2024.625 1847.953125 2047.453125 1894.890625 2047.453125 C 1914.96875 2047.453125 1934.140625 2042.203125 1951.84375 2031.890625 C 1969.796875 2021.40625 1985.640625 2005.109375 1998.953125 1983.4375 C 2012.15625 1961.9375 2022.65625 1934.28125 2030.140625 1901.21875 C 2037.515625 1868.609375 2041.25 1829.5 2041.25 1784.9375 C 2041.25 1702.421875 2029.359375 1638.34375 2005.90625 1594.46875 Z M 1951.8125 1856.484375 C 1949.453125 1875.09375 1945.78125 1890.78125 1940.890625 1903.140625 C 1936.25 1914.890625 1930.515625 1923.5 1923.359375 1929.453125 C 1916.21875 1935.375 1907.328125 1938.375 1896.9375 1938.375 C 1876.40625 1938.375 1862.078125 1927.125 1853.171875 1904 C 1843.375 1878.578125 1838.40625 1838.53125 1838.40625 1784.9375 C 1838.40625 1759.765625 1839.640625 1737.15625 1842.09375 1717.78125 C 1844.4375 1699.203125 1848.140625 1683.53125 1853.09375 1671.1875 C 1857.8125 1659.390625 1863.578125 1650.75 1870.703125 1644.78125 C 1877.734375 1638.875 1886.5625 1635.890625 1896.9375 1635.890625 C 1917.640625 1635.890625 1932.015625 1647.125 1940.828125 1670.21875 C 1950.546875 1695.640625 1955.484375 1735.71875 1955.484375 1789.3125 C 1955.484375 1814.546875 1954.25 1837.15625 1951.8125 1856.484375 Z M 1951.8125 1856.484375 "/>
<path style=" stroke:none;fill-rule:nonzero;fill:rgb(0%,59.215689%,61.176473%);fill-opacity:1;" d="M 1922.515625 67.5625 L 1937.109375 67.5625 L 1937.109375 123.96875 L 1947.453125 123.96875 L 1947.453125 67.5625 L 1962.15625 67.5625 L 1962.15625 53.546875 L 1922.515625 53.546875 L 1922.515625 67.5625 "/>
<path style=" stroke:none;fill-rule:nonzero;fill:rgb(0%,59.215689%,61.176473%);fill-opacity:1;" d="M 1998.140625 53.546875 L 1988.171875 101.546875 L 1977.84375 53.546875 L 1964.359375 53.546875 L 1964.359375 123.96875 L 1974.078125 123.96875 L 1974.078125 78.984375 L 1983.734375 123.96875 L 1992.609375 123.96875 L 2001.765625 80.15625 L 2001.765625 123.96875 L 2011.4375 123.96875 L 2011.4375 53.546875 L 1998.140625 53.546875 "/>
<path style=" stroke:none;fill-rule:nonzero;fill:rgb(0%,59.215689%,61.176473%);fill-opacity:1;" d="M 1522.203125 1416.265625 C 1391.890625 1416.265625 1280.484375 1351.625 1182.4375 1219.40625 C 1121.875 1137.765625 1071.9375 1037.71875 1025.984375 933.71875 C 980.0625 1037.71875 930.109375 1137.765625 869.546875 1219.40625 C 764.203125 1361.46875 643.421875 1425.515625 500.359375 1415.1875 C 227.546875 1413.453125 5.96875 1096.6875 5.96875 707.59375 C 5.96875 317.421875 228.765625 0 502.609375 0 C 652.46875 0 778.640625 72.96875 888.296875 223.046875 C 940.96875 295.140625 985.4375 378.765625 1025.984375 466.265625 C 1066.546875 378.765625 1111.03125 295.140625 1163.6875 223.046875 C 1273.34375 72.96875 1399.515625 0 1549.375 0 C 1823.21875 0 2046.015625 317.421875 2046.015625 707.59375 C 2046.015625 1096.6875 1824.4375 1413.453125 1551.625 1415.1875 C 1541.71875 1415.90625 1531.890625 1416.265625 1522.203125 1416.265625 Z M 1125.765625 698.15625 C 1180.109375 827.890625 1232.859375 948.65625 1297.125 1035.28125 C 1369.640625 1133.078125 1446.09375 1173.3125 1544.921875 1165.625 L 1549.375 1165.453125 C 1729.609375 1165.453125 1876.265625 960.0625 1876.265625 707.59375 C 1876.265625 455.140625 1729.609375 249.734375 1549.375 249.734375 C 1442.953125 249.734375 1357.140625 299.359375 1279.296875 405.890625 C 1221.171875 485.46875 1173.171875 587.421875 1125.765625 698.15625 Z M 502.609375 249.734375 C 322.375 249.734375 175.71875 455.140625 175.71875 707.59375 C 175.71875 960.0625 322.375 1165.453125 502.609375 1165.453125 L 507.078125 1165.625 C 605.90625 1173.3125 682.34375 1133.078125 754.859375 1035.28125 C 819.125 948.65625 871.875 827.890625 926.21875 698.15625 C 878.8125 587.421875 830.8125 485.46875 772.6875 405.890625 C 694.84375 299.359375 609.03125 249.734375 502.609375 249.734375 Z M 502.609375 249.734375 "/>
<path style=" stroke:none;fill-rule:nonzero;fill:rgb(0%,59.215689%,61.176473%);fill-opacity:1;" d="M 1571.8125 616.84375 L 1571.8125 481.40625 L 1476.015625 481.40625 L 1476.015625 616.84375 L 1383.96875 616.84375 L 1383.96875 757.109375 L 1476.015625 757.109375 L 1476.015625 893.546875 L 1571.8125 893.546875 L 1571.8125 757.109375 L 1663.859375 757.109375 L 1663.859375 616.84375 L 1571.8125 616.84375 "/>
<path style=" stroke:none;fill-rule:nonzero;fill:rgb(0%,59.215689%,61.176473%);fill-opacity:1;" d="M 364.796875 615.140625 L 667.328125 615.140625 L 667.328125 759.8125 L 364.796875 759.8125 Z M 364.796875 615.140625 "/>
</g>
</svg>
