<?xml version="1.0" encoding="UTF-8"?>
<svg xmlns="http://www.w3.org/2000/svg" xmlns:xlink="http://www.w3.org/1999/xlink" width="2048px" height="2048px" viewBox="0 0 2048 2048" version="1.1">
<g id="surface1">
<path style=" stroke:none;fill-rule:nonzero;fill:rgb(66.274512%,72.549021%,79.607844%);fill-opacity:1;" d="M 2047.890625 609.21875 C 2047.875 574.78125 2039.59375 544.359375 2022.859375 518.25 C 2006.421875 492.5625 1981.796875 471.046875 1948.765625 454.015625 C 1676.125 314.140625 1403.203125 174.6875 1130.65625 34.671875 C 1057.171875 -3.0625 985.921875 -1.6875 912.984375 36.59375 C 804.46875 93.546875 261.140625 370.5 99.234375 453.9375 C 32.5625 488.28125 0.125 540.84375 0.109375 609.15625 C 0 890.453125 0.109375 1171.75 0 1453.0625 C 0.015625 1486.734375 7.9375 1516.578125 23.9375 1542.296875 C 40.390625 1568.75 65.359375 1590.875 99.15625 1608.28125 C 261.0625 1691.71875 804.46875 1968.65625 912.953125 2025.609375 C 985.921875 2063.921875 1057.171875 2065.28125 1130.6875 2027.53125 C 1403.234375 1887.515625 1676.171875 1748.0625 1948.859375 1608.1875 C 1982.640625 1590.796875 2007.609375 1568.65625 2024.0625 1542.234375 C 2040.046875 1516.5 2047.984375 1486.65625 2048 1452.984375 C 2048 1452.984375 2048 890.53125 2047.890625 609.21875 "/>
<path style=" stroke:none;fill-rule:nonzero;fill:rgb(49.803922%,54.509807%,60.000002%);fill-opacity:1;" d="M 1128.8125 36.515625 C 1055.453125 -1.140625 984.3125 0.234375 911.5 38.421875 C 803.15625 95.21875 260.71875 371.46875 99.078125 454.6875 C 32.515625 488.9375 0.125 541.359375 0.109375 609.5 C 0 890.0625 0.109375 1170.625 0 1451.203125 C 0.015625 1484.796875 7.921875 1514.5625 23.90625 1540.21875 C 40.328125 1566.609375 65.25 1588.671875 98.984375 1606.015625 C 136.03125 1625.09375 193.0625 1654.296875 260.265625 1688.65625 L 1757 358.21875 C 1547.578125 251.03125 1338.09375 143.921875 1128.8125 36.515625 "/>
<path style=" stroke:none;fill-rule:nonzero;fill:rgb(100%,100%,100%);fill-opacity:1;" d="M 1235.640625 902.890625 L 1554.359375 904.875 C 1554.359375 786.84375 1419.9375 497.78125 1034.578125 497.78125 C 789.046875 497.78125 458.96875 636.53125 458.96875 1035.453125 C 458.96875 1434.359375 782.546875 1564.4375 1034.578125 1564.4375 C 1442.71875 1564.4375 1540.25 1313.40625 1540.25 1171.546875 L 1236.203125 1156.09375 C 1236.203125 1156.09375 1244.34375 1320.171875 1032.953125 1320.171875 C 837.828125 1320.171875 805.265625 1107.71875 805.265625 1035.453125 C 805.265625 925.609375 849.21875 749.265625 1032.953125 749.265625 C 1216.703125 749.265625 1235.640625 902.890625 1235.640625 902.890625 "/>
</g>
</svg>
