<?xml version="1.0" encoding="UTF-8"?>
<svg xmlns="http://www.w3.org/2000/svg" xmlns:xlink="http://www.w3.org/1999/xlink" width="2048px" height="2048px" viewBox="0 0 2048 2048" version="1.1">
<g id="surface1">
<path style=" stroke:none;fill-rule:nonzero;fill:rgb(100%,100%,100%);fill-opacity:1;" d="M 58.484375 1002.75 C 77.53125 949.859375 94.671875 940.65625 100.859375 938.359375 C 101.8125 903.859375 103.234375 871.65625 105.140625 839.453125 C 98.953125 816.453125 87.046875 770.453125 76.09375 701.46875 C 93.71875 694.5625 108.953125 706.0625 116.578125 712.96875 C 120.375 680.765625 125.140625 650.859375 130.859375 620.96875 C 127.515625 593.375 121.328125 538.171875 117.53125 462.28125 C 131.8125 492.171875 142.28125 528.96875 147.515625 549.671875 C 154.65625 524.375 162.28125 503.671875 169.90625 485.28125 C 169.90625 453.078125 169.90625 395.578125 172.75 326.578125 C 182.75 377.1875 188.953125 425.484375 191.328125 450.78125 C 200.84375 441.578125 210.84375 436.984375 221.328125 439.28125 C 223.234375 413.984375 227.03125 370.28125 233.703125 317.390625 C 238.46875 377.1875 240.375 425.484375 241.328125 450.78125 C 251.796875 462.28125 261.796875 478.375 271.3125 501.375 C 286.5625 439.28125 300.84375 411.671875 317.5 390.984375 C 317.5 289.78125 314.65625 190.890625 303.703125 92 C 292.75 66.703125 280.84375 48.296875 268.9375 34.5 C 256.5625 66.703125 246.5625 103.5 237.984375 142.59375 C 231.796875 96.59375 223.703125 48.296875 213.703125 4.59375 C 208.9375 4.59375 199.890625 2.296875 182.28125 16.09375 C 173.703125 69 167.515625 121.890625 162.765625 174.796875 C 152.28125 142.59375 139.421875 115 124.671875 96.59375 C 116.09375 115 108 135.6875 99.90625 158.6875 C 97.046875 225.390625 96.09375 287.484375 96.578125 344.984375 C 84.1875 333.484375 69.90625 328.890625 54.671875 338.078125 C 49.4375 365.6875 44.203125 395.578125 39.4375 427.78125 C 40.390625 510.578125 44.671875 581.875 50.859375 643.96875 C 36.578125 660.0625 21.8125 689.96875 8.015625 735.96875 C 6.109375 765.859375 4.671875 798.0625 3.25 827.953125 C 11.8125 899.25 22.765625 956.75 33.71875 1000.453125 C 22.765625 1044.140625 11.8125 1103.9375 1.8125 1184.4375 C 2.765625 1218.9375 4.203125 1251.140625 6.109375 1283.328125 L 6.578125 1283.328125 C 18.015625 1168.34375 31.8125 1092.4375 45.15625 1041.84375 C 72.296875 1131.546875 98.953125 1156.84375 102.765625 1159.140625 C 102.28125 1138.4375 101.328125 1117.75 100.859375 1090.140625 C 92.765625 1080.9375 76.09375 1055.640625 58.484375 1002.75 Z M 295.609375 315.078125 C 287.03125 331.1875 273.703125 361.078125 260.84375 411.671875 C 258.9375 367.984375 255.609375 303.578125 248.46875 229.984375 C 257.03125 188.59375 267.984375 147.1875 281.796875 112.6875 C 291.3125 181.6875 294.65625 266.78125 295.609375 315.078125 Z M 224.65625 218.484375 C 214.65625 280.578125 208.46875 340.375 205.140625 381.78125 C 200.375 340.375 191.796875 285.1875 178.953125 229.984375 C 183.234375 177.09375 189.421875 119.59375 198.46875 66.703125 C 209.890625 112.6875 218.46875 167.890625 224.65625 218.484375 Z M 157.515625 262.1875 C 152.765625 342.6875 151.8125 413.984375 151.8125 459.984375 C 143.234375 430.078125 130.859375 393.28125 114.671875 367.984375 C 113.234375 312.78125 113.71875 248.390625 117.046875 179.390625 C 133.71875 195.484375 146.5625 225.390625 157.515625 262.1875 Z M 113.71875 634.765625 C 102.765625 625.5625 86.09375 618.671875 67.53125 630.171875 C 61.34375 572.671875 56.578125 501.375 55.625 420.875 C 71.8125 411.671875 86.578125 418.578125 99.4375 432.375 C 102.765625 522.078125 108.953125 591.0625 113.71875 634.765625 Z M 58.953125 712.96875 C 68.953125 788.859375 81.34375 844.0625 89.90625 878.5625 C 78.953125 887.75 62.765625 908.453125 45.625 961.34375 C 35.15625 922.25 24.671875 869.359375 16.109375 800.359375 C 29.90625 752.0625 45.15625 726.765625 58.953125 712.96875 Z M 58.953125 712.96875 "/>
<path style=" stroke:none;fill-rule:nonzero;fill:rgb(26.274511%,69.01961%,16.470589%);fill-opacity:1;" d="M 208.578125 2.046875 L 212.59375 2.171875 L 212.890625 2.21875 L 214.1875 2.1875 C 234.15625 2.1875 252.21875 11.8125 269.53125 32.15625 L 270.796875 33.640625 L 270.640625 34.046875 L 272.03125 35.6875 C 283.796875 50.125 294.4375 67.96875 304.140625 90.859375 L 304.234375 91.734375 L 306.25 96.96875 C 307.375 99.921875 308.71875 103.515625 310.265625 107.71875 L 312.578125 114.09375 C 322.671875 142.03125 332.875 172.921875 342.109375 204.875 L 344.328125 212.65625 C 349.84375 232.21875 354.703125 251.265625 358.765625 269.46875 C 367.359375 301.25 368.796875 367.453125 361.234375 406.265625 L 360.546875 410.21875 C 358.234375 423.203125 352.015625 454.90625 344.984375 489.640625 L 341.078125 508.859375 L 337.5 526.203125 L 332.15625 551.8125 C 326.1875 580.046875 321.921875 598.921875 320.109375 604.75 C 311.03125 625.609375 303.96875 618.53125 295.6875 585.078125 L 294.796875 581.390625 C 287.46875 550.734375 279.875 525.890625 271.578125 505.828125 L 271.515625 503.28125 L 271.09375 503.53125 C 262.21875 482.09375 252.640625 465.953125 242.015625 454.03125 L 241.6875 455.4375 C 235.046875 448.5625 228.40625 443.984375 221.765625 441.6875 L 221.625 440.625 L 221.296875 441.6875 C 211.5 439.53125 201.765625 443.359375 191.9375 452.640625 L 191.890625 453.140625 C 186.765625 457.90625 181.75 464.984375 177.171875 473.28125 L 175.84375 475.734375 C 173.25 480.671875 171.078125 485.53125 170.703125 486.9375 L 170.296875 486.09375 L 170.125 487.4375 C 161.453125 508.390625 154.28125 528.703125 147.8125 551.625 L 147.21875 551.53125 L 146.359375 554.796875 C 143.0625 567.375 140.140625 579.984375 136.96875 594.734375 L 132.484375 616 L 131.78125 619.140625 C 131.640625 619.734375 131.515625 620.1875 131.421875 620.515625 C 131.359375 620.703125 131.3125 620.875 131.25 621 L 131.21875 622.609375 C 125.421875 652.9375 120.875 681.90625 117.265625 711.96875 L 117.484375 714.171875 L 116.890625 719.03125 C 111.46875 764.703125 106.703125 821.984375 106.125 837.65625 L 106.078125 839.5 L 105.59375 840.640625 L 104.828125 854.171875 C 103.296875 882.203125 102.15625 909.875 101.359375 938.671875 L 101.109375 939.75 L 101.359375 941 C 99.953125 988.25 99.9375 1039.953125 101.28125 1089.5625 L 101.359375 1089.9375 C 101.5 1098.40625 101.6875 1106.1875 101.953125 1115.25 L 102.828125 1143.15625 C 103.015625 1149.109375 103.140625 1154 103.25 1158.703125 C 103.4375 1158.828125 103.609375 1158.953125 103.78125 1159.046875 L 104.203125 1160.859375 C 125.03125 1565.578125 224.046875 1722.359375 292.921875 1460.8125 C 303.90625 1419.765625 311.640625 1411.890625 319.578125 1431.984375 C 323.578125 1442.09375 327.484375 1458.25 333.5625 1488.390625 L 343.765625 1540.109375 C 347.1875 1557.359375 350.265625 1572.359375 353.421875 1587.109375 L 355.015625 1594.484375 C 355.15625 1595.265625 358.671875 1612.75 359.828125 1619.015625 C 368.71875 1667.4375 370 1713.1875 359.296875 1767.96875 C 311.953125 2007.765625 235.6875 2096.84375 162.515625 2010.4375 C 86.34375 1920.46875 26.96875 1658.671875 6.578125 1286.25 L 6.71875 1285.3125 L 6.578125 1285.75 L 6.109375 1285.75 L 5.625 1284 C 3.671875 1250.890625 2.265625 1218.59375 1.390625 1183.203125 L 2.375 1175.34375 L 2.28125 1172.25 C -1.109375 1059.453125 -0.75 942.390625 3.546875 833.921875 L 2.765625 827.421875 L 4.75 785.578125 L 4.96875 781.390625 C 5.84375 763.671875 6.65625 748.921875 7.71875 733.96875 L 8.1875 732.46875 L 8.890625 721.34375 C 15.25 623.84375 25.125 527.296875 37.6875 438.953125 L 39.0625 429.4375 L 39.03125 426.375 C 43.421875 396.640625 48.453125 367.328125 54.609375 335.6875 L 55.921875 334.953125 L 57 329.359375 C 59.390625 317.203125 61.796875 305.578125 64.234375 294.484375 L 66.703125 283.421875 C 75.875 241.828125 85.921875 204.234375 96.6875 171.03125 L 99.203125 163.421875 L 99.421875 158.203125 L 99.65625 156.609375 C 108.234375 132.234375 116.28125 111.96875 124.796875 94.25 L 125.890625 95.671875 L 127.359375 92.625 C 143.0625 59.890625 159.65625 35.765625 176.671875 20.875 L 180.078125 18.015625 L 181.703125 16.75 L 182.203125 13.71875 C 192.9375 5.296875 201 2.21875 208.578125 2.046875 Z M 40.828125 1062.3125 L 40.578125 1063.34375 C 28.671875 1113.90625 18.140625 1179.484375 9.3125 1262.296875 L 8.15625 1273.234375 L 7.140625 1283.203125 L 7.21875 1283.21875 L 8.234375 1273.40625 C 17.453125 1185.515625 28.59375 1114.71875 40.828125 1062.3125 Z M 210.328125 6.875 L 208.578125 6.875 C 201.296875 7.03125 193.546875 9.921875 183.640625 16.90625 L 183.15625 19.890625 C 175.078125 69.6875 168.78125 121.5625 163.6875 178.046875 L 162.96875 179.125 C 152.359375 146.515625 140.75 121.5625 127.53125 104.375 L 125.515625 101.75 L 125.375 102.109375 C 117.4375 119.171875 109.765625 138.40625 102.390625 159.71875 L 100.734375 164.5 L 100.328125 174.71875 C 98.171875 229.234375 97.25 282.078125 97.46875 333.265625 L 97.546875 347.1875 L 96.953125 349.65625 C 84.28125 337.875 71.03125 334.609375 57.734375 341.375 L 55.859375 342.390625 L 55.421875 344.703125 C 51.125 367.40625 46.921875 391.78125 42.875 416.78125 L 41.46875 425.578125 L 40.484375 432.625 L 40.65625 444.515625 C 41.8125 511.734375 45.234375 573.84375 50.734375 632.046875 L 51.796875 642.921875 L 51.453125 646.3125 C 36.9375 662.671875 22.734375 692.984375 8.765625 737.96875 L 8.3125 739.390625 L 8.046875 743.75 C 7.46875 753.34375 6.90625 763.609375 6.3125 775.140625 L 5.734375 786.6875 L 4.421875 813.859375 C 4.15625 819 3.84375 825 3.6875 826.75 L 3.796875 827.65625 L 3.96875 823.5 L 4.640625 829.046875 C 12.578125 895.125 23.03125 953.140625 35 1000.890625 L 35 1004.609375 C 22.140625 1056.3125 11.9375 1114.5 3.6875 1187.890625 L 2.984375 1194.125 L 2.75 1187.125 L 2.59375 1181.9375 C 2.5 1182.671875 2.40625 1183.390625 2.3125 1184.125 C 3.109375 1212.921875 4.25 1240.59375 5.78125 1268.625 L 6.40625 1279.546875 L 7.265625 1271.078125 C 17.171875 1174.796875 29.328125 1100.890625 43.234375 1046.171875 L 44.84375 1039.953125 L 45.4375 1039.859375 L 46.15625 1042.1875 L 46.390625 1042.15625 C 52.390625 1062.015625 58.59375 1079.46875 64.890625 1094.640625 C 70.828125 1108.71875 76.859375 1120.8125 82.875 1130.984375 C 90.40625 1143.71875 97.46875 1152.5 101.53125 1155.8125 L 102.1875 1156.3125 L 101.796875 1142.5625 L 101.3125 1127.59375 C 100.984375 1117.125 100.75 1108.71875 100.5625 1100.40625 L 100.4375 1094.4375 L 99.984375 1093.90625 C 87.609375 1079.265625 72.546875 1050.125 58.21875 1007.09375 L 58.21875 1004.8125 L 58.234375 1000.65625 C 72.828125 960.125 86.4375 942.34375 99.171875 936.625 L 100.421875 936.109375 L 100.796875 923.625 C 101.40625 904.515625 102.171875 885.796875 103.125 867.03125 L 103.859375 852.9375 L 104.578125 840.359375 L 102.796875 833.671875 L 101.390625 828.28125 C 95.78125 808.421875 89.875 782.59375 84.296875 752.21875 C 81.953125 739.984375 79.65625 727.09375 77.375 713.296875 L 75.703125 702.9375 L 76.0625 699.0625 C 79.890625 697.5625 83.640625 696.84375 87.3125 696.8125 C 97.390625 696.59375 106.953125 701.5625 116.359375 709.890625 L 117.171875 703.296875 C 120.34375 677.9375 124.1875 653.265625 128.890625 627.84375 L 130.234375 620.640625 L 129.359375 613.28125 C 124.5 571.5625 120.53125 527.421875 117.640625 474.359375 L 117.03125 462.84375 L 116.796875 458.140625 L 117.34375 459.25 L 117.71875 457.75 C 129.859375 482.359375 139.171875 511.25 147.84375 545.5 L 147.84375 545.578125 L 149.015625 541.484375 C 153.859375 525.015625 159.09375 509.796875 165.0625 494.5625 L 167.328125 488.84375 L 169.40625 483.78125 L 169.40625 477.0625 C 169.421875 427.59375 169.984375 385.96875 171.75 339.046875 L 172.265625 326.109375 L 173.125 324.921875 L 173.21875 325.375 L 173.59375 324.875 C 181.515625 363.203125 186.375 397.921875 192.015625 447.640625 L 193.96875 445.890625 C 201.28125 439.578125 208.5625 436.3125 215.875 436.28125 L 218.609375 436.421875 L 220.984375 436.796875 L 221.453125 430.703125 C 223.921875 399.34375 227.4375 363.734375 232.09375 325.6875 L 233.8125 311.9375 L 234.140625 316.265625 L 234.640625 316.515625 C 238.875 369.640625 241.5625 418.015625 242.234375 449.34375 L 244.171875 451.546875 C 253.1875 462.234375 261.484375 476.09375 269.234375 493.796875 L 271.25 498.515625 L 272.484375 493.5625 C 285.375 442.640625 297.953125 413.75 315.359375 391.21875 L 317 389.109375 L 317 379.046875 C 316.96875 371.296875 316.9375 363.640625 316.875 356.09375 C 315.484375 300.1875 311.78125 225.703125 306.90625 145.6875 L 305.375 121.046875 L 303.875 97.90625 L 303.484375 94.171875 C 293.359375 70.78125 281.921875 52.125 269.5 37.03125 L 269.65625 36.625 C 258.0625 66.75 248.046875 102.234375 238.8125 144.34375 L 238.390625 144.09375 C 238.375 144.171875 238.34375 144.265625 238.328125 144.34375 L 237.5625 143.90625 C 230.890625 94.265625 222.71875 47.21875 213.703125 7.015625 Z M 59.328125 710.59375 L 59.859375 711.671875 C 67.75 771.578125 77.28125 821.34375 88.5625 867.984375 L 91.578125 880.234375 L 90.453125 880.953125 L 88.703125 882.140625 L 90 880.9375 C 83.671875 886.25 77.390625 893.828125 71.140625 904.203125 C 63.03125 918.234375 54.609375 937.96875 46.375 963.390625 L 45.921875 963.3125 L 45.3125 963.265625 C 33.828125 920.375 23.703125 866.21875 15.671875 801.609375 L 15.8125 798.40625 C 28.3125 754.671875 42.71875 726.71875 58.859375 710.59375 L 59.015625 710.90625 C 59.125 710.8125 59.234375 710.703125 59.328125 710.59375 Z M 99.53125 430.015625 L 99.921875 431.953125 C 102.59375 504.03125 107.234375 567.5625 113.046875 623.28125 L 114.625 637.984375 L 114.109375 637.546875 L 114.15625 637.984375 L 113.15625 637.140625 C 99 625.25 83.53125 622.96875 67.125 634.859375 L 66.609375 633.546875 C 59.640625 566.25 55.53125 497.609375 54.65625 423.3125 L 55.078125 420.78125 L 55.171875 420.734375 L 55.5625 418.484375 C 70.53125 409.96875 85.140625 414.5625 99.53125 430.015625 Z M 117.140625 177.015625 C 132.6875 192.046875 145.703125 219.546875 157.8125 260.203125 L 158 262.84375 C 153.953125 331.28125 152.3125 397.765625 152.3125 459.984375 L 151.515625 461.9375 L 151.3125 461.25 L 151.03125 461.9375 C 139.921875 423.140625 127.953125 392.03125 114.03125 370.28125 L 113.6875 368.1875 C 112.828125 317.703125 113.234375 265.6875 115.109375 213.34375 C 115.171875 211.890625 115.21875 210.4375 115.265625 209 L 115.109375 213.34375 C 115.234375 210.078125 115.34375 206.828125 115.484375 203.5625 C 115.609375 200.046875 115.765625 196.53125 115.90625 193.015625 C 115.9375 192.328125 115.96875 191.640625 116 190.953125 C 116.171875 186.921875 116.359375 182.890625 116.5625 178.84375 Z M 261.15625 413.578125 L 260.359375 412.203125 L 260.359375 412.171875 L 260.296875 411.015625 L 259.734375 398.984375 C 256.8125 338.0625 253.46875 287.28125 248.015625 231.015625 L 248.109375 228.328125 C 257.40625 180.890625 268.53125 140.984375 281.515625 110.6875 C 281.53125 110.640625 281.546875 110.59375 281.5625 110.546875 L 281.890625 110.953125 L 282.203125 111.359375 C 290.25 169.625 294.71875 244.390625 296.09375 314.859375 L 296 315.609375 L 295.796875 317.3125 C 283.734375 341.28125 272.296875 371.390625 261.25 413.234375 C 261.21875 413.328125 261.1875 413.4375 261.15625 413.546875 Z M 198.78125 64.84375 C 209.609375 108.40625 218.421875 160.25 225.09375 217.296875 L 225.046875 219.78125 L 225.046875 219.96875 C 216.3125 274.203125 209.734375 331.375 205.59375 382.65625 L 205.40625 385.046875 L 205.234375 387.203125 L 205.21875 387.453125 L 204.703125 382.953125 L 204.65625 382.640625 L 203.46875 373.359375 C 196.75 322.109375 188.9375 276.578125 178.625 234.125 L 178.484375 231.4375 L 178.546875 230.515625 L 178.484375 229.109375 C 183.359375 168.84375 189.796875 113.625 198.078125 65.15625 Z M 198.78125 64.84375 "/>
<path style=" stroke:none;fill-rule:nonzero;fill:rgb(100%,100%,100%);fill-opacity:1;" d="M 217.984375 1722.609375 C 254.171875 1722.609375 287.03125 1660.515625 312.75 1554.71875 C 314.65625 1550.125 332.265625 1646.71875 339.40625 1683.515625 C 340.84375 1692.71875 340.84375 1695.015625 340.84375 1695.015625 C 254.171875 2060.703125 107.046875 2007.796875 37.53125 1375.328125 C 43.25 1283.328125 51.34375 1228.140625 51.34375 1228.140625 C 69.90625 1264.9375 83.71875 1267.234375 83.71875 1267.234375 C 98.953125 1462.71875 152.28125 1722.609375 217.984375 1722.609375 Z M 217.984375 1722.609375 "/>
<path style=" stroke:none;fill-rule:nonzero;fill:rgb(26.274511%,69.01961%,16.470589%);fill-opacity:1;" d="M 602.25 2.296875 C 719.375 2.296875 812.703125 457.671875 812.703125 1021.140625 C 812.703125 1584.625 718.90625 2035.390625 602.25 2035.390625 C 485.59375 2035.390625 392.265625 1586.921875 392.265625 1021.140625 C 392.265625 461.03125 483.265625 11.375 598.734375 2.4375 Z M 602.25 1669.71875 C 676.046875 1669.71875 736.984375 1377.625 736.984375 1023.453125 C 736.984375 669.265625 676.046875 370.28125 602.25 370.28125 C 528.4375 370.28125 468.4375 666.96875 468.4375 1023.453125 C 468.4375 1376.359375 527.25 1663.90625 600.03125 1669.625 Z M 876.03125 52.890625 C 876.03125 25.296875 881.265625 2.296875 886.984375 2.296875 L 901.734375 2.296875 L 1145.046875 1251.140625 L 1145.53125 1251.140625 L 1145.53125 85.09375 C 1145.53125 57.5 1150.28125 32.203125 1156.484375 32.203125 L 1210.28125 32.203125 C 1216 32.203125 1221.234375 57.5 1221.234375 85.09375 L 1221.234375 1987.09375 C 1221.234375 2014.703125 1216 2037.703125 1210.28125 2037.703125 L 1196.46875 2037.703125 L 951.734375 740.5625 L 951.265625 740.5625 L 951.265625 1954.90625 C 951.265625 1982.5 946.5 2007.796875 940.3125 2007.796875 L 886.984375 2007.796875 C 881.265625 2007.796875 876.03125 1982.5 876.03125 1954.90625 Z M 1461.21875 32.203125 C 1574.0625 32.203125 1666.4375 476.078125 1666.4375 1018.84375 C 1666.4375 1566.21875 1574.0625 2010.09375 1461.21875 2010.09375 L 1322.65625 2010.09375 C 1316.9375 2010.09375 1312.171875 1984.796875 1312.171875 1957.203125 L 1312.171875 85.09375 C 1312.171875 57.5 1316.9375 32.203125 1322.65625 32.203125 Z M 1856.890625 0 C 1862.609375 0 1864.984375 13.796875 1866.890625 32.203125 L 2046.875 1934.203125 C 2050.203125 1971 2045.921875 2007.796875 2036.875 2007.796875 L 1985.921875 2007.796875 C 1977.359375 2007.796875 1973.078125 1991.703125 1968.78125 1950.296875 L 1940.21875 1644.421875 L 1765.46875 1644.421875 L 1736.90625 1950.296875 C 1734.515625 1977.90625 1729.28125 2007.796875 1719.765625 2007.796875 L 1668.8125 2007.796875 C 1660.71875 2007.796875 1655.953125 1971 1659.296875 1934.203125 L 1841.171875 32.203125 C 1843.078125 16.09375 1845.9375 0 1851.171875 0 Z M 1454.546875 372.578125 L 1387.890625 372.578125 L 1387.890625 1662.8125 L 1454.546875 1662.8125 C 1530.734375 1662.8125 1585.96875 1386.828125 1585.96875 1016.546875 C 1585.96875 648.5625 1530.25 372.578125 1454.546875 372.578125 Z M 1853.5625 712.96875 L 1851.65625 712.96875 L 1794.515625 1333.9375 L 1912.125 1333.9375 Z M 1853.5625 712.96875 "/>
</g>
</svg>
