<?xml version="1.0" encoding="UTF-8"?>
<svg xmlns="http://www.w3.org/2000/svg" xmlns:xlink="http://www.w3.org/1999/xlink" width="2048px" height="2048px" viewBox="0 0 2048 2048" version="1.1">
<g id="surface1">
<path style=" stroke:none;fill-rule:nonzero;fill:rgb(8.627451%,8.627451%,7.843138%);fill-opacity:1;" d="M 1024.015625 0 C 458.53125 0 0 469.453125 0 1048.578125 C 0 1511.875 293.40625 1904.9375 700.28125 2043.578125 C 751.453125 2053.296875 770.25 2020.84375 770.25 1993.140625 C 770.25 1968.140625 769.296875 1885.53125 768.859375 1797.921875 C 483.96875 1861.34375 423.859375 1674.203125 423.859375 1674.203125 C 377.28125 1553 310.15625 1520.765625 310.15625 1520.765625 C 217.25 1455.6875 317.171875 1457.03125 317.171875 1457.03125 C 420 1464.421875 474.140625 1565.078125 474.140625 1565.078125 C 565.46875 1725.390625 713.6875 1679.046875 772.125 1652.25 C 781.3125 1584.46875 807.859375 1538.21875 837.140625 1512.03125 C 609.6875 1485.515625 370.59375 1395.609375 370.59375 993.8125 C 370.59375 879.34375 410.59375 785.796875 476.109375 712.359375 C 465.46875 685.953125 430.421875 579.296875 486.03125 434.859375 C 486.03125 434.859375 572.015625 406.6875 767.703125 542.34375 C 849.390625 519.125 936.984375 507.46875 1024.015625 507.0625 C 1111.03125 507.46875 1198.703125 519.125 1280.53125 542.34375 C 1475.984375 406.6875 1561.859375 434.859375 1561.859375 434.859375 C 1617.59375 579.296875 1582.53125 685.953125 1571.890625 712.359375 C 1637.546875 785.796875 1677.28125 879.34375 1677.28125 993.8125 C 1677.28125 1396.5625 1437.734375 1485.234375 1209.703125 1511.203125 C 1246.4375 1543.734375 1279.15625 1607.546875 1279.15625 1705.375 C 1279.15625 1845.6875 1277.96875 1958.609375 1277.96875 1993.140625 C 1277.96875 2021.046875 1296.40625 2053.734375 1348.3125 2043.4375 C 1754.96875 1904.640625 2048 1511.71875 2048 1048.578125 C 2048 469.453125 1589.53125 0 1024.015625 0 Z M 383.53125 1493.734375 C 381.265625 1498.9375 373.265625 1500.5 365.96875 1496.921875 C 358.546875 1493.5 354.375 1486.40625 356.78125 1481.171875 C 358.984375 1475.8125 367.015625 1474.3125 374.421875 1477.90625 C 381.859375 1481.328125 386.109375 1488.5 383.53125 1493.734375 Z M 433.890625 1539.75 C 429.015625 1544.390625 419.46875 1542.234375 412.984375 1534.90625 C 406.28125 1527.59375 405.03125 1517.828125 409.984375 1513.125 C 415.015625 1508.484375 424.28125 1510.65625 431 1517.96875 C 437.6875 1525.359375 439 1535.0625 433.890625 1539.75 Z M 468.453125 1598.640625 C 462.171875 1603.09375 451.921875 1598.921875 445.578125 1589.59375 C 439.296875 1580.265625 439.296875 1569.078125 445.703125 1564.609375 C 452.0625 1560.125 462.171875 1564.15625 468.609375 1573.40625 C 474.859375 1582.890625 474.859375 1594.078125 468.453125 1598.640625 Z M 526.890625 1666.828125 C 521.28125 1673.171875 509.328125 1671.46875 500.578125 1662.828125 C 491.625 1654.375 489.125 1642.375 494.75 1636.03125 C 500.4375 1629.671875 512.453125 1631.46875 521.28125 1640.046875 C 530.15625 1648.484375 532.875 1660.5625 526.890625 1666.828125 Z M 602.421875 1689.859375 C 599.9375 1698.078125 588.4375 1701.8125 576.828125 1698.3125 C 565.25 1694.71875 557.671875 1685.09375 560.015625 1676.796875 C 562.421875 1668.53125 573.984375 1664.640625 585.671875 1668.375 C 597.234375 1671.953125 604.828125 1681.5 602.421875 1689.859375 Z M 688.375 1699.625 C 688.65625 1708.265625 678.828125 1715.4375 666.65625 1715.59375 C 654.40625 1715.875 644.5 1708.875 644.375 1700.375 C 644.375 1691.640625 653.984375 1684.53125 666.234375 1684.328125 C 678.40625 1684.078125 688.375 1691.03125 688.375 1699.625 Z M 772.8125 1696.3125 C 774.28125 1704.75 765.8125 1713.40625 753.71875 1715.71875 C 741.84375 1717.9375 730.828125 1712.734375 729.328125 1704.359375 C 727.84375 1695.71875 736.46875 1687.046875 748.328125 1684.8125 C 760.4375 1682.65625 771.28125 1687.734375 772.8125 1696.3125 Z M 772.8125 1696.3125 "/>
</g>
</svg>
