<?xml version="1.0" encoding="UTF-8"?>
<svg xmlns="http://www.w3.org/2000/svg" xmlns:xlink="http://www.w3.org/1999/xlink" width="2048px" height="2048px" viewBox="0 0 2048 2048" version="1.1">
<g id="surface1">
<path style=" stroke:none;fill-rule:nonzero;fill:rgb(32.549021%,50.980395%,63.137257%);fill-opacity:1;" d="M 660.4375 1583.1875 C 660.4375 1583.1875 554.84375 1628.625 735.578125 1644 C 954.53125 1662.46875 1066.421875 1659.828125 1307.71875 1626.03125 C 1307.71875 1626.03125 1371.140625 1655.46875 1459.734375 1680.953125 C 918.84375 1852.46875 235.59375 1671.015625 660.4375 1583.1875 "/>
<path style=" stroke:none;fill-rule:nonzero;fill:rgb(32.549021%,50.980395%,63.137257%);fill-opacity:1;" d="M 594.34375 1359.375 C 594.34375 1359.375 475.90625 1424.234375 656.78125 1438.0625 C 890.65625 1455.921875 1075.375 1457.390625 1394.984375 1411.84375 C 1394.984375 1411.84375 1439.1875 1445 1508.703125 1463.140625 C 854.734375 1604.625 126.328125 1474.296875 594.34375 1359.375 "/>
<path style=" stroke:none;fill-rule:nonzero;fill:rgb(90.588236%,43.529412%,0%);fill-opacity:1;" d="M 1151.53125 979.6875 C 1284.8125 1093.21875 1116.515625 1195.390625 1116.515625 1195.390625 C 1116.515625 1195.390625 1454.921875 1066.125 1299.515625 904.265625 C 1154.359375 753.328125 1043.046875 678.328125 1645.65625 419.75 C 1645.65625 419.75 699.75 594.53125 1151.53125 979.6875 "/>
<path style=" stroke:none;fill-rule:nonzero;fill:rgb(32.549021%,50.980395%,63.137257%);fill-opacity:1;" d="M 1866.90625 1748.734375 C 1866.90625 1748.734375 1945.046875 1796.375 1780.859375 1833.234375 C 1468.640625 1903.203125 481.40625 1924.34375 207.140625 1836.015625 C 108.5625 1804.28125 293.4375 1760.25 351.59375 1751 C 412.25 1741.28125 446.90625 1743.09375 446.90625 1743.09375 C 337.265625 1685.9375 -261.75 1855.296875 142.625 1903.796875 C 1245.453125 2036.125 2152.96875 1844.203125 1866.90625 1748.734375 "/>
<path style=" stroke:none;fill-rule:nonzero;fill:rgb(32.549021%,50.980395%,63.137257%);fill-opacity:1;" d="M 711.203125 1127.46875 C 711.203125 1127.46875 209.03125 1215.71875 533.375 1247.765625 C 670.328125 1261.328125 943.328125 1258.265625 1197.625 1242.5 C 1405.4375 1229.515625 1614.125 1201.9375 1614.125 1201.9375 C 1614.125 1201.9375 1540.84375 1225.171875 1487.828125 1251.953125 C 977.875 1351.1875 -7.265625 1305.015625 276.34375 1203.515625 C 516.1875 1117.734375 711.203125 1127.46875 711.203125 1127.46875 "/>
<path style=" stroke:none;fill-rule:nonzero;fill:rgb(32.549021%,50.980395%,63.137257%);fill-opacity:1;" d="M 1612.046875 1500.03125 C 2130.4375 1300.71875 1890.765625 1109.1875 1723.46875 1134.984375 C 1682.453125 1141.3125 1664.171875 1146.78125 1664.171875 1146.78125 C 1664.171875 1146.78125 1679.390625 1129.140625 1708.46875 1121.5 C 2039.4375 1035.40625 2293.96875 1375.40625 1601.640625 1510.078125 C 1601.640625 1510.078125 1609.65625 1504.765625 1612.046875 1500.03125 "/>
<path style=" stroke:none;fill-rule:nonzero;fill:rgb(90.588236%,43.529412%,0%);fill-opacity:1;" d="M 1299.515625 2.203125 C 1299.515625 2.203125 1586.609375 214.6875 1027.21875 541.4375 C 578.640625 803.53125 924.921875 952.984375 1027.03125 1123.734375 C 765.1875 948.9375 573.03125 795.0625 701.953125 651.859375 C 891.15625 441.640625 1415.34375 339.71875 1299.515625 2.203125 "/>
<path style=" stroke:none;fill-rule:nonzero;fill:rgb(32.549021%,50.980395%,63.137257%);fill-opacity:1;" d="M 762.140625 2040.09375 C 1259.734375 2063.671875 2023.84375 2027.03125 2041.9375 1852.828125 C 2041.9375 1852.828125 2007.15625 1918.859375 1630.703125 1971.3125 C 1206 2030.4375 682.1875 2023.53125 371.515625 1985.640625 C 371.515625 1985.625 435.109375 2024.578125 762.140625 2040.09375 "/>
</g>
</svg>
