<?xml version="1.0" encoding="UTF-8"?>
<svg xmlns="http://www.w3.org/2000/svg" xmlns:xlink="http://www.w3.org/1999/xlink" width="2048px" height="2048px" viewBox="0 0 2048 2048" version="1.1">
<g id="surface1">
<path style=" stroke:none;fill-rule:nonzero;fill:rgb(30.588236%,30.588236%,30.588236%);fill-opacity:1;" d="M 84.671875 1067.75 L 84.671875 844.171875 L 141.765625 844.171875 L 141.765625 1084.84375 C 144.40625 1104.234375 142.453125 1123.890625 136.015625 1142.625 C 129.578125 1161.375 118.78125 1178.8125 104.265625 1193.90625 C 77.296875 1213.765625 42.75 1224.5 7.125 1224.078125 L 1.171875 1187.734375 C 24.140625 1187.734375 46.296875 1180.484375 63.375 1167.375 C 78.703125 1152.109375 84.671875 1131.375 84.671875 1067.75 Z M 510.4375 1039.078125 C 510.4375 1066.34375 510.4375 1090.703125 512.984375 1111.796875 L 462.28125 1111.796875 L 458.875 1068.53125 C 448.28125 1083.828125 433.109375 1096.46875 414.921875 1105.15625 C 396.734375 1113.84375 376.1875 1118.265625 355.34375 1117.96875 C 305.921875 1117.96875 247.140625 1095.0625 247.140625 1001.640625 L 247.140625 846.390625 L 304.21875 846.390625 L 304.21875 991.8125 C 304.21875 1042.359375 322.546875 1076.15625 374.09375 1076.15625 C 384.703125 1076.265625 395.21875 1074.546875 405.046875 1071.125 C 414.859375 1067.71875 423.78125 1062.65625 431.28125 1056.25 C 438.78125 1049.859375 444.71875 1042.234375 448.71875 1033.859375 C 452.734375 1025.484375 454.734375 1016.5 454.625 1007.453125 L 454.625 844.578125 L 511.703125 844.578125 L 511.703125 1037.625 Z M 618.640625 932.890625 C 618.640625 899.078125 618.640625 871.453125 616.09375 846.359375 L 667.21875 846.359375 L 669.765625 891.8125 C 681.15625 875.390625 697.5625 861.921875 717.21875 852.828125 C 736.875 843.734375 759.0625 839.359375 781.390625 840.1875 C 857.234375 840.1875 914.3125 894.359375 914.3125 975.0625 C 914.3125 1070.3125 845.734375 1117.578125 771.59375 1117.578125 C 752.625 1118.296875 733.75 1114.828125 716.8125 1107.5 C 699.859375 1100.1875 685.421875 1089.25 674.890625 1075.765625 L 674.890625 1221.1875 L 618.640625 1221.1875 Z M 674.890625 1003.78125 C 675.03125 1010.375 675.890625 1016.953125 677.4375 1023.421875 C 682.28125 1039.5625 693.28125 1053.859375 708.703125 1064.078125 C 724.140625 1074.28125 743.125 1079.796875 762.640625 1079.765625 C 822.71875 1079.765625 858.078125 1037.953125 858.078125 977.25 C 858.078125 924.171875 824.84375 878.71875 764.78125 878.71875 C 741 880.375 718.765625 889.390625 702.203125 904.046875 C 685.65625 918.703125 675.9375 938 674.890625 958.34375 Z M 1016.03125 846.125 L 1084.625 1002.8125 C 1091.875 1020.265625 1099.546875 1041.34375 1104.65625 1056.984375 C 1110.625 1040.984375 1117.015625 1020.625 1124.671875 1001.71875 L 1186.875 846.125 L 1246.953125 846.125 L 1161.75 1035.171875 C 1119.140625 1126.0625 1093.15625 1172.953125 1053.953125 1201.3125 C 1034.21875 1216.703125 1010.140625 1227.46875 984.078125 1232.578125 L 970.015625 1191.859375 C 988.25 1186.75 1005.15625 1178.734375 1019.875 1168.234375 C 1040.65625 1153.78125 1057.15625 1135.34375 1068.015625 1114.421875 C 1070.34375 1110.796875 1071.921875 1106.875 1072.703125 1102.796875 C 1072.21875 1098.40625 1070.921875 1094.109375 1068.859375 1090.0625 L 952.984375 845.390625 L 1015.1875 845.390625 Z M 1398.515625 769.84375 L 1398.515625 846.203125 L 1480.3125 846.203125 L 1480.3125 882.546875 L 1398.515625 882.546875 L 1398.515625 1025.796875 C 1398.515625 1058.515625 1409.578125 1077.421875 1441.109375 1077.421875 C 1452.3125 1077.578125 1463.484375 1076.46875 1474.34375 1074.140625 L 1476.90625 1110.5 C 1460.609375 1115.3125 1443.421875 1117.53125 1426.203125 1117.046875 C 1414.796875 1117.65625 1403.359375 1116.15625 1392.703125 1112.640625 C 1382.03125 1109.125 1372.390625 1103.6875 1364.421875 1096.6875 C 1347.078125 1076.875 1339.15625 1052.203125 1342.265625 1027.609375 L 1342.265625 882.1875 L 1293.703125 882.1875 L 1293.703125 845.828125 L 1343.125 845.828125 L 1343.125 781.125 Z M 1585.46875 987.453125 C 1584.3125 999.796875 1586.3125 1012.1875 1591.328125 1023.796875 C 1596.328125 1035.40625 1604.234375 1045.9375 1614.484375 1054.6875 C 1624.734375 1063.4375 1637.078125 1070.171875 1650.6875 1074.453125 C 1664.28125 1078.71875 1678.8125 1080.421875 1693.265625 1079.4375 C 1722.484375 1080 1751.53125 1075.296875 1778.46875 1065.625 L 1788.265625 1101.984375 C 1755.203125 1113.609375 1719.640625 1119.171875 1683.890625 1118.34375 C 1663.046875 1119.5625 1642.140625 1116.921875 1622.609375 1110.59375 C 1603.078125 1104.265625 1585.375 1094.40625 1570.734375 1081.703125 C 1556.078125 1069 1544.828125 1053.734375 1537.734375 1036.96875 C 1530.65625 1020.1875 1527.890625 1002.3125 1529.65625 984.546875 C 1529.65625 904.5625 1585.46875 841.3125 1676.65625 841.3125 C 1778.90625 841.3125 1804.46875 917.65625 1804.46875 966.375 C 1805 973.875 1805 981.40625 1804.46875 988.921875 L 1584.203125 988.921875 Z M 1752.484375 951.109375 C 1754.125 941.390625 1753.3125 931.484375 1750.09375 922.046875 C 1746.875 912.625 1741.3125 903.890625 1733.8125 896.453125 C 1726.296875 889.015625 1717 883.03125 1706.5625 878.90625 C 1696.109375 874.796875 1684.75 872.625 1673.234375 872.578125 C 1649.828125 874.015625 1627.90625 882.875 1611.75 897.40625 C 1595.59375 911.921875 1586.375 931.078125 1585.90625 951.109375 Z M 1891.078125 928.796875 C 1891.078125 897.53125 1891.078125 870.625 1888.53125 845.90625 L 1939.65625 845.90625 L 1939.65625 897.890625 L 1942.203125 897.890625 C 1947.578125 881.84375 1958.65625 867.625 1973.9375 857.203125 C 1989.203125 846.78125 2007.890625 840.671875 2027.421875 839.71875 C 2032.796875 839.125 2038.234375 839.125 2043.609375 839.71875 L 2043.609375 885.171875 C 2037.09375 884.515625 2030.515625 884.515625 2024.015625 885.171875 C 2004.671875 885.796875 1986.265625 892.421875 1972.234375 903.796875 C 1958.1875 915.171875 1949.484375 930.515625 1947.75 946.96875 C 1946.15625 954.40625 1945.296875 961.953125 1945.1875 969.515625 L 1945.1875 1110.9375 L 1888.953125 1110.9375 L 1888.953125 929.15625 Z M 1891.078125 928.796875 "/>
<path style=" stroke:none;fill-rule:nonzero;fill:rgb(46.27451%,46.27451%,46.666667%);fill-opacity:1;" d="M 1866.0625 115.796875 C 1867.8125 140.21875 1861 164.53125 1846.5 185.640625 C 1832 206.75 1810.46875 223.703125 1784.625 234.328125 C 1758.796875 244.953125 1729.84375 248.78125 1701.46875 245.3125 C 1673.078125 241.859375 1646.546875 231.265625 1625.234375 214.890625 C 1603.9375 198.5 1588.828125 177.09375 1581.828125 153.359375 C 1574.84375 129.625 1576.296875 104.65625 1585.984375 81.625 C 1595.6875 58.59375 1613.203125 38.5625 1636.296875 24.046875 C 1659.390625 9.546875 1687.015625 1.234375 1715.671875 0.1875 C 1734.453125 -0.703125 1753.25 1.59375 1771 6.9375 C 1788.734375 12.28125 1805.0625 20.5625 1819.046875 31.296875 C 1833.015625 42.046875 1844.359375 55.046875 1852.4375 69.546875 C 1860.5 84.046875 1865.140625 99.765625 1866.0625 115.796875 Z M 1866.0625 115.796875 "/>
<path style=" stroke:none;fill-rule:nonzero;fill:rgb(95.294118%,46.666667%,14.901961%);fill-opacity:1;" d="M 1023.625 1539.6875 C 640.1875 1539.6875 303.1875 1422.265625 128.9375 1248.84375 C 196.546875 1404.859375 318.546875 1539.4375 478.5 1634.5 C 638.453125 1729.546875 828.703125 1780.515625 1023.625 1780.515625 C 1218.546875 1780.515625 1408.796875 1729.546875 1568.75 1634.5 C 1728.703125 1539.4375 1850.703125 1404.859375 1918.3125 1248.84375 C 1744.484375 1422.265625 1408.765625 1539.6875 1023.625 1539.6875 Z M 1023.625 1539.6875 "/>
<path style=" stroke:none;fill-rule:nonzero;fill:rgb(95.294118%,46.666667%,14.901961%);fill-opacity:1;" d="M 1023.625 412.015625 C 1407.0625 412.015625 1744.0625 529.453125 1918.3125 702.859375 C 1850.703125 546.859375 1728.703125 412.265625 1568.75 317.21875 C 1408.796875 222.15625 1218.546875 171.203125 1023.625 171.203125 C 828.703125 171.203125 638.453125 222.15625 478.5 317.21875 C 318.546875 412.265625 196.546875 546.859375 128.9375 702.859375 C 303.1875 529.078125 638.484375 412.015625 1023.625 412.015625 Z M 1023.625 412.015625 "/>
<path style=" stroke:none;fill-rule:nonzero;fill:rgb(61.960787%,61.960787%,61.960787%);fill-opacity:1;" d="M 495.78125 1877.15625 C 498.015625 1907.921875 489.484375 1938.5625 471.265625 1965.171875 C 453.03125 1991.78125 425.921875 2013.15625 393.40625 2026.578125 C 360.890625 2040 324.421875 2044.859375 288.65625 2040.53125 C 252.90625 2036.203125 219.453125 2022.890625 192.59375 2002.28125 C 165.734375 1981.671875 146.65625 1954.71875 137.8125 1924.828125 C 128.984375 1894.9375 130.765625 1863.484375 142.953125 1834.46875 C 155.125 1805.453125 177.15625 1780.1875 206.234375 1761.890625 C 235.296875 1743.59375 270.09375 1733.09375 306.1875 1731.734375 C 329.828125 1730.65625 353.484375 1733.5625 375.796875 1740.296875 C 398.125 1747.015625 418.671875 1757.4375 436.28125 1770.9375 C 453.890625 1784.4375 468.203125 1800.765625 478.40625 1819 C 488.625 1837.234375 494.515625 1856.984375 495.78125 1877.15625 Z M 495.78125 1877.15625 "/>
<path style=" stroke:none;fill-rule:nonzero;fill:rgb(38.039216%,38.431373%,38.431373%);fill-opacity:1;" d="M 172.515625 372.5 C 151.859375 372.984375 131.484375 368.25 113.96875 358.875 C 96.453125 349.515625 82.578125 335.9375 74.078125 319.859375 C 65.578125 303.78125 62.84375 285.921875 66.21875 268.515625 C 69.578125 251.125 78.90625 234.953125 93.015625 222.0625 C 107.109375 209.171875 125.375 200.125 145.484375 196.0625 C 165.59375 192 186.671875 193.109375 206.046875 199.234375 C 225.4375 205.375 242.25 216.25 254.40625 230.515625 C 266.546875 244.796875 273.484375 261.796875 274.34375 279.421875 C 275.140625 303.25 264.90625 326.390625 245.84375 343.8125 C 226.78125 361.25 200.421875 371.546875 172.515625 372.5 Z M 172.515625 372.5 "/>
</g>
</svg>
