<?xml version="1.0" encoding="UTF-8"?>
<svg xmlns="http://www.w3.org/2000/svg" xmlns:xlink="http://www.w3.org/1999/xlink" width="2048px" height="2048px" viewBox="0 0 2048 2048" version="1.1">
<g id="surface1">
<path style=" stroke:none;fill-rule:nonzero;fill:rgb(41.176471%,70.980394%,24.705882%);fill-opacity:1;" d="M 1968 1024 C 1968 502.640625 1545.359375 80 1024 80 C 502.640625 80 80 502.640625 80 1024 C 80 1545.359375 502.640625 1968 1024 1968 C 1545.359375 1968 1968 1545.359375 1968 1024 Z M 1968 1024 "/>
<path style=" stroke:none;fill-rule:nonzero;fill:rgb(100%,100%,100%);fill-opacity:1;" d="M 1024 0 C 458.453125 0 0 458.453125 0 1024 C 0 1589.546875 458.453125 2048 1024 2048 C 1589.546875 2048 2048 1589.546875 2048 1024 C 2048 458.453125 1589.546875 0 1024 0 Z M 1024 160 C 1501.171875 160 1888 546.828125 1888 1024 C 1888 1501.171875 1501.171875 1888 1024 1888 C 546.828125 1888 160 1501.171875 160 1024 C 160 546.828125 546.828125 160 1024 160 Z M 1024 160 "/>
<path style=" stroke:none;fill-rule:nonzero;fill:rgb(97.254902%,97.254902%,97.254902%);fill-opacity:1;" d="M 628 500 L 628 1224 C 628 1310.171875 695.4375 1378.53125 781.21875 1379.984375 L 784 1380 L 1264 1380 C 1350.171875 1380 1418.53125 1312.5625 1419.984375 1226.78125 L 1420 1224 L 1420 824 C 1420 781.078125 1386.921875 748 1344 748 C 1301.8125 748 1269.140625 779.953125 1268.03125 821.78125 L 1268 824 L 1268 1228 L 1100 1228 L 1100 824 C 1100 781.078125 1066.921875 748 1024 748 C 981.8125 748 949.140625 779.953125 948.03125 821.78125 L 948 824 L 948 1228 L 780 1228 L 780 824 C 780 690.1875 890.1875 580 1024 580 C 1080.296875 580 1133.875 600.125 1177.4375 635.96875 L 1180.59375 638.625 L 1184 641.5625 L 1187.46875 638.5625 C 1229.46875 602.875 1281.15625 582.046875 1335.78125 580.140625 L 1339.984375 580.03125 L 1344 580 C 1476.46875 580 1585.796875 688 1587.96875 820 L 1588 824 L 1588 1224 C 1588 1400.21875 1444.890625 1545.078125 1269.328125 1547.953125 L 1264 1548 L 784 1548 C 607.78125 1548 462.921875 1404.890625 460.046875 1229.328125 L 460 1224 L 460 500 Z M 628 500 "/>
</g>
</svg>
