<?xml version="1.0" encoding="UTF-8"?>
<svg xmlns="http://www.w3.org/2000/svg" xmlns:xlink="http://www.w3.org/1999/xlink" width="2048px" height="2048px" viewBox="0 0 2048 2048" version="1.1">
<g id="surface1">
<path style=" stroke:none;fill-rule:nonzero;fill:rgb(0%,0%,0%);fill-opacity:1;" d="M 2040.0625 1226.359375 C 2027.78125 1190.296875 1995.625 1165.1875 1954.015625 1159.15625 C 1934.40625 1156.3125 1911.9375 1157.515625 1885.359375 1162.84375 C 1839.015625 1172.109375 1804.640625 1175.640625 1779.5625 1176.328125 C 1874.25 1021.28125 1951.25 844.484375 1995.578125 678.0625 C 2067.25 408.96875 2028.953125 286.375 1984.1875 230.921875 C 1865.734375 84.15625 1692.921875 5.296875 1484.40625 2.890625 C 1373.203125 1.5625 1275.546875 22.859375 1224.625 38.171875 C 1177.1875 30.0625 1126.203125 25.53125 1072.6875 24.6875 C 972.40625 23.140625 883.78125 44.34375 808.0625 87.90625 C 766.140625 74.171875 698.859375 54.796875 621.171875 42.421875 C 438.421875 13.328125 291.15625 36 183.421875 109.796875 C 52.984375 199.15625 -7.5 354.390625 3.6875 571.21875 C 7.234375 640.0625 46.953125 849.515625 109.484375 1048.15625 C 145.421875 1162.328125 183.734375 1257.140625 223.375 1329.984375 C 279.59375 1433.28125 339.734375 1494.109375 407.265625 1515.953125 C 445.125 1528.1875 513.890625 1536.734375 586.21875 1478.34375 C 595.390625 1489.09375 607.609375 1499.796875 623.84375 1509.734375 C 644.46875 1522.34375 669.671875 1532.640625 694.84375 1538.75 C 785.578125 1560.734375 870.5625 1555.234375 943.0625 1524.40625 C 943.515625 1536.921875 943.859375 1548.859375 944.140625 1559.171875 C 944.625 1575.90625 945.109375 1592.3125 945.734375 1607.65625 C 950.03125 1711.421875 957.3125 1792.09375 978.875 1848.53125 C 980.0625 1851.640625 981.65625 1856.359375 983.34375 1861.375 C 994.09375 1893.328125 1012.09375 1946.8125 1057.859375 1988.703125 C 1105.265625 2032.078125 1162.609375 2045.390625 1215.109375 2045.390625 C 1241.453125 2045.390625 1266.578125 2042.03125 1288.609375 2037.453125 C 1367.171875 2021.125 1456.40625 1996.25 1520.9375 1907.140625 C 1581.96875 1822.890625 1611.625 1696 1617 1496.0625 C 1617.6875 1490.40625 1618.34375 1485.015625 1618.953125 1479.859375 C 1619.375 1476.390625 1619.796875 1472.84375 1620.234375 1469.296875 L 1634.609375 1470.53125 L 1638.3125 1470.765625 C 1718.328125 1474.3125 1816.171875 1457.84375 1876.25 1430.78125 C 1923.734375 1409.421875 2075.890625 1331.53125 2040.0625 1226.359375 "/>
<path style=" stroke:none;fill-rule:nonzero;fill:rgb(20%,40.392157%,56.862748%);fill-opacity:1;" d="M 1903.25 1246.8125 C 1665.328125 1294.40625 1648.96875 1216.296875 1648.96875 1216.296875 C 1900.171875 854.84375 2005.1875 396.03125 1914.5625 283.75 C 1667.34375 -22.5625 1239.375 122.296875 1232.234375 126.0625 L 1229.9375 126.46875 C 1182.9375 117 1130.328125 111.359375 1071.203125 110.421875 C 963.546875 108.71875 881.890625 137.796875 819.921875 183.359375 C 819.921875 183.359375 56.484375 -121.609375 91.984375 566.921875 C 99.546875 713.40625 308.5 1675.28125 557.734375 1384.75 C 648.828125 1278.515625 736.84375 1188.6875 736.84375 1188.6875 C 780.5625 1216.84375 832.90625 1231.21875 887.765625 1226.046875 L 892.03125 1222.546875 C 890.703125 1235.734375 891.3125 1248.640625 893.734375 1263.90625 C 829.53125 1333.46875 848.390625 1345.6875 720.046875 1371.3125 C 590.171875 1397.265625 666.46875 1443.46875 716.28125 1455.546875 C 776.671875 1470.1875 916.390625 1490.9375 1010.78125 1362.796875 L 1007.015625 1377.40625 C 1032.171875 1396.953125 1049.84375 1504.5 1046.875 1602 C 1043.921875 1699.515625 1041.9375 1766.453125 1061.765625 1818.734375 C 1081.59375 1871.015625 1101.34375 1988.65625 1270.078125 1953.609375 C 1411.0625 1924.3125 1484.125 1848.375 1494.296875 1721.734375 C 1501.5 1631.703125 1517.828125 1645.015625 1518.859375 1564.515625 L 1531.953125 1526.40625 C 1547.046875 1404.359375 1534.34375 1364.984375 1621.21875 1383.296875 L 1642.328125 1385.09375 C 1706.25 1387.90625 1789.921875 1375.125 1839.03125 1352.984375 C 1944.78125 1305.390625 2007.5 1225.9375 1903.234375 1246.8125 L 1903.25 1246.8125 "/>
<path style=" stroke:none;fill-rule:nonzero;fill:rgb(100%,100%,100%);fill-opacity:1;" d="M 864.609375 632.4375 C 843.171875 629.546875 823.75 632.21875 813.9375 639.4375 C 808.40625 643.484375 806.6875 648.1875 806.234375 651.421875 C 805 660 811.203125 669.484375 815 674.359375 C 825.765625 688.203125 841.5 697.71875 857.0625 699.8125 C 859.328125 700.109375 861.5625 700.265625 863.796875 700.265625 C 889.765625 700.265625 913.359375 680.65625 915.453125 666.1875 C 918.046875 648.0625 890.921875 635.984375 864.609375 632.4375 "/>
<path style=" stroke:none;fill-rule:nonzero;fill:rgb(100%,100%,100%);fill-opacity:1;" d="M 1574.890625 633.015625 L 1574.875 633.015625 C 1572.828125 618.8125 1546.765625 614.75 1522.03125 618.09375 C 1497.328125 621.421875 1473.375 632.234375 1475.375 646.46875 C 1476.984375 657.546875 1497.59375 676.453125 1522 676.4375 C 1524.046875 676.4375 1526.140625 676.3125 1528.234375 676.03125 C 1544.515625 673.84375 1556.46875 663.8125 1562.140625 658.03125 C 1570.796875 649.21875 1575.796875 639.390625 1574.890625 633.015625 "/>
<path style=" stroke:none;fill-rule:nonzero;fill:rgb(100%,100%,100%);fill-opacity:1;" d="M 1982.421875 1241.40625 C 1973.34375 1214.8125 1944.140625 1206.25 1895.640625 1215.96875 C 1751.59375 1244.796875 1700.015625 1224.8125 1683.0625 1212.71875 C 1795.03125 1047.328125 1887.140625 847.40625 1936.828125 660.875 C 1960.359375 572.515625 1973.359375 490.453125 1974.421875 423.578125 C 1975.59375 350.15625 1962.703125 296.21875 1936.109375 263.265625 C 1828.890625 130.40625 1671.53125 59.15625 1481.046875 57.1875 C 1350.109375 55.765625 1239.46875 88.265625 1218.015625 97.40625 C 1172.84375 86.515625 1123.609375 79.828125 1070 78.96875 C 971.6875 77.421875 886.71875 100.25 816.359375 146.765625 C 785.8125 135.734375 706.828125 109.453125 610.25 94.359375 C 443.265625 68.296875 310.59375 88.046875 215.890625 153.09375 C 102.90625 230.71875 50.75 369.46875 60.859375 565.484375 C 64.265625 631.4375 103 834.3125 164.15625 1028.609375 C 244.65625 1284.3125 332.15625 1429.09375 424.21875 1458.859375 C 435 1462.34375 447.421875 1464.78125 461.125 1464.78125 C 494.71875 1464.78125 535.890625 1450.109375 578.734375 1400.171875 C 649.890625 1317.15625 716.328125 1247.59375 740.8125 1222.3125 C 777.015625 1241.15625 816.765625 1251.671875 857.4375 1252.71875 C 857.5 1253.75 857.609375 1254.78125 857.703125 1255.8125 C 849.546875 1265.203125 842.859375 1273.421875 837.15625 1280.4375 C 808.984375 1315.125 803.109375 1322.34375 712.421875 1340.453125 C 686.625 1345.625 618.09375 1359.3125 617.09375 1405.890625 C 616 1456.78125 698.078125 1478.15625 707.4375 1480.421875 C 740.03125 1488.328125 771.421875 1492.234375 801.375 1492.234375 C 874.203125 1492.21875 938.28125 1469.015625 989.5 1424.109375 C 987.921875 1605.53125 995.734375 1784.296875 1018.1875 1838.765625 C 1036.59375 1883.34375 1081.53125 1992.328125 1223.5 1992.3125 C 1244.328125 1992.3125 1267.265625 1989.96875 1292.484375 1984.71875 C 1440.65625 1953.921875 1505 1890.421875 1529.890625 1750.421875 C 1543.203125 1675.59375 1566.0625 1496.9375 1576.8125 1401.09375 C 1599.5 1407.953125 1628.71875 1411.09375 1660.296875 1411.09375 C 1726.140625 1411.09375 1802.140625 1397.53125 1849.796875 1376.078125 C 1903.328125 1351.96875 1999.9375 1292.8125 1982.421875 1241.40625 Z M 1629.5625 593.796875 C 1629.078125 622.09375 1625.0625 647.78125 1620.8125 674.59375 C 1616.234375 703.421875 1611.484375 733.234375 1610.296875 769.4375 C 1609.125 804.65625 1613.65625 841.265625 1618.046875 876.671875 C 1626.90625 948.203125 1636 1021.828125 1600.78125 1094.484375 C 1595.3125 1085.0625 1590.03125 1074.78125 1585.1875 1063.390625 C 1580.8125 1053.109375 1571.3125 1036.578125 1558.15625 1013.703125 C 1506.96875 924.6875 1387.078125 716.21875 1448.453125 631.140625 C 1466.734375 605.8125 1513.125 579.78125 1629.5625 593.796875 Z M 1488.421875 114.484375 C 1659.09375 118.140625 1794.09375 180.0625 1889.671875 298.5 C 1962.984375 389.34375 1882.265625 802.71875 1648.5625 1159.34375 C 1646.25 1156.5 1643.90625 1153.625 1641.46875 1150.6875 C 1640.5 1149.5 1639.515625 1148.3125 1638.515625 1147.09375 C 1698.90625 1050.390625 1687.09375 954.703125 1676.578125 869.859375 C 1672.265625 835.046875 1668.1875 802.15625 1669.21875 771.265625 C 1670.296875 738.515625 1674.765625 710.453125 1679.078125 683.296875 C 1684.390625 649.828125 1689.78125 615.21875 1688.296875 574.40625 C 1689.40625 570.125 1689.859375 565.0625 1689.28125 559.0625 C 1685.46875 519.921875 1639.390625 402.796875 1545.46875 296.765625 C 1494.09375 238.78125 1419.171875 173.890625 1316.875 130.125 C 1360.875 121.28125 1421.046875 113.03125 1488.421875 114.484375 Z M 533.390625 1363.609375 C 486.1875 1418.640625 453.59375 1408.09375 442.875 1404.625 C 373.03125 1382.046875 292 1238.90625 220.546875 1011.90625 C 158.734375 815.5 122.59375 618.015625 119.734375 562.625 C 110.703125 387.484375 154.5 265.40625 249.875 199.8125 C 405.109375 93.0625 660.328125 156.953125 762.875 189.359375 C 761.40625 190.78125 759.875 192.09375 758.40625 193.53125 C 590.125 358.328125 594.125 639.90625 594.53125 657.109375 C 594.515625 663.75 595.09375 673.15625 595.890625 686.09375 C 598.78125 733.4375 604.171875 821.59375 589.765625 921.40625 C 576.390625 1014.15625 605.875 1104.953125 670.65625 1170.5 C 677.359375 1177.28125 684.359375 1183.640625 691.59375 1189.640625 C 662.75 1219.59375 600.09375 1285.796875 533.390625 1363.609375 Z M 713.21875 1130.9375 C 661.015625 1078.109375 637.296875 1004.640625 648.15625 929.328125 C 663.359375 823.875 657.75 732.046875 654.734375 682.703125 C 654.3125 675.796875 653.9375 669.75 653.71875 664.984375 C 678.296875 643.84375 792.234375 584.640625 873.46875 602.703125 C 910.5625 610.9375 933.140625 635.40625 942.53125 677.53125 C 991.140625 895.53125 948.96875 986.40625 915.078125 1059.421875 C 908.09375 1074.46875 901.5 1088.6875 895.859375 1103.390625 L 891.5 1114.765625 C 880.4375 1143.515625 870.15625 1170.25 863.78125 1195.625 C 808.28125 1195.46875 754.28125 1172.484375 713.21875 1130.9375 Z M 721.75 1424.953125 C 705.53125 1421.03125 690.96875 1414.203125 682.40625 1408.546875 C 689.546875 1405.28125 702.265625 1400.859375 724.3125 1396.453125 C 831.015625 1375.15625 847.484375 1360.125 883.46875 1315.8125 C 891.71875 1305.65625 901.078125 1294.140625 914.015625 1280.125 C 914.03125 1280.109375 914.03125 1280.109375 914.03125 1280.09375 C 933.328125 1259.15625 942.15625 1262.703125 958.15625 1269.140625 C 971.125 1274.34375 983.75 1290.109375 988.875 1307.453125 C 991.296875 1315.640625 994.015625 1331.203125 985.109375 1343.296875 C 909.9375 1445.34375 800.40625 1444.046875 721.75 1424.953125 Z M 1280.125 1928.828125 C 1149.609375 1955.9375 1103.390625 1891.359375 1072.9375 1817.53125 C 1053.28125 1769.859375 1043.625 1554.9375 1050.46875 1317.578125 C 1050.5625 1314.421875 1050.09375 1311.359375 1049.203125 1308.5 C 1048.421875 1302.96875 1047.21875 1297.359375 1045.546875 1291.734375 C 1035.359375 1257.1875 1010.515625 1228.296875 980.71875 1216.328125 C 968.890625 1211.5625 947.15625 1202.84375 921.03125 1209.3125 C 926.609375 1187.0625 936.265625 1161.953125 946.734375 1134.734375 L 951.125 1123.296875 C 956.078125 1110.390625 962.28125 1097.03125 968.84375 1082.875 C 1004.3125 1006.484375 1052.875 901.84375 1000.15625 665.4375 C 980.421875 576.90625 914.484375 533.65625 814.53125 543.703125 C 754.59375 549.71875 699.78125 573.15625 672.4375 586.609375 C 666.5625 589.5 661.1875 592.28125 656.15625 595 C 663.78125 505.78125 692.625 339.0625 800.484375 233.578125 C 868.390625 167.171875 958.828125 134.375 1069.03125 136.140625 C 1286.15625 139.578125 1425.375 247.625 1503.953125 337.671875 C 1571.65625 415.265625 1608.328125 493.40625 1622.96875 535.5625 C 1512.921875 524.71875 1438.078125 545.78125 1400.140625 598.375 C 1317.609375 712.78125 1445.296875 934.84375 1506.671875 1041.546875 C 1517.921875 1061.109375 1527.640625 1078.015625 1530.6875 1085.203125 C 1550.671875 1132.171875 1576.546875 1163.515625 1595.4375 1186.40625 C 1601.21875 1193.421875 1606.84375 1200.21875 1611.109375 1206.15625 C 1577.78125 1215.484375 1517.921875 1237 1523.375 1344.609375 C 1518.984375 1398.609375 1487.6875 1651.390625 1471.796875 1740.703125 C 1450.8125 1858.703125 1406.03125 1902.65625 1280.125 1928.828125 Z M 1824.96875 1324.21875 C 1790.890625 1339.5625 1733.859375 1351.078125 1679.671875 1353.546875 C 1619.828125 1356.265625 1589.375 1347.046875 1582.203125 1341.375 C 1578.84375 1274.3125 1604.59375 1267.3125 1631.828125 1259.890625 C 1636.109375 1258.71875 1640.28125 1257.59375 1644.3125 1256.21875 C 1646.8125 1258.203125 1649.5625 1260.15625 1652.5625 1262.078125 C 1700.65625 1292.875 1786.453125 1296.1875 1907.5625 1271.953125 C 1908 1271.859375 1908.453125 1271.78125 1908.890625 1271.6875 C 1892.5625 1286.5 1864.609375 1306.375 1824.96875 1324.21875 Z M 1824.96875 1324.21875 "/>
</g>
</svg>
