<?xml version="1.0" encoding="UTF-8"?>
<svg xmlns="http://www.w3.org/2000/svg" xmlns:xlink="http://www.w3.org/1999/xlink" width="2048px" height="2048px" viewBox="0 0 2048 2048" version="1.1">
<defs>
<linearGradient id="linear0" gradientUnits="userSpaceOnUse" x1="-0.0277778" y1="0.32" x2="1" y2="0.675556" gradientTransform="matrix(2048,0,0,2042.6875,0,0)">
<stop offset="0" style="stop-color:rgb(13.333333%,59.607843%,74.117647%);stop-opacity:1;"/>
<stop offset="1" style="stop-color:rgb(5.490196%,84.313725%,70.980392%);stop-opacity:1;"/>
</linearGradient>
</defs>
<g id="surface1">
<path style=" stroke:none;fill-rule:nonzero;fill:url(#linear0);" d="M 1024 0 C 750.9375 0 580.265625 226.96875 512 680.890625 C 614.40625 453.921875 733.859375 368.8125 870.40625 425.5625 C 948.296875 457.9375 1003.984375 551.875 1065.609375 655.875 C 1166 825.28125 1282.203125 1021.34375 1536 1021.34375 C 1809.0625 1021.34375 1979.734375 794.375 2048 340.453125 C 1945.59375 567.40625 1826.140625 652.515625 1689.59375 595.78125 C 1611.703125 563.40625 1556.015625 469.46875 1494.390625 365.46875 C 1394 196.0625 1277.796875 0 1024 0 Z M 512 1021.34375 C 238.9375 1021.34375 68.265625 1248.3125 0 1702.234375 C 102.40625 1475.265625 221.859375 1390.15625 358.40625 1446.90625 C 436.296875 1479.265625 491.984375 1573.21875 553.609375 1677.203125 C 654 1846.609375 770.203125 2042.6875 1024 2042.6875 C 1297.0625 2042.6875 1467.734375 1815.71875 1536 1361.78125 C 1433.59375 1588.75 1314.140625 1673.859375 1177.59375 1617.125 C 1099.703125 1584.75 1044.015625 1490.796875 982.390625 1386.8125 C 882 1217.40625 765.796875 1021.34375 512 1021.34375 Z M 512 1021.34375 "/>
</g>
</svg>
