<?xml version="1.0" encoding="UTF-8"?>
<svg xmlns="http://www.w3.org/2000/svg" xmlns:xlink="http://www.w3.org/1999/xlink" width="2048px" height="2048px" viewBox="0 0 2048 2048" version="1.1">
<g id="surface1">
<path style=" stroke:none;fill-rule:nonzero;fill:rgb(39.215687%,60.392159%,82.352942%);fill-opacity:1;" d="M 2047.890625 601.53125 C 2047.875 567.125 2039.609375 536.734375 2022.859375 510.640625 C 2006.421875 484.984375 1981.796875 463.484375 1948.765625 446.484375 C 1676.125 306.734375 1403.21875 167.421875 1130.65625 27.546875 C 1057.171875 -10.171875 985.9375 -8.796875 913 29.453125 C 804.46875 86.34375 261.140625 363.046875 99.234375 446.40625 C 32.5625 480.703125 0.125 533.21875 0.109375 601.46875 C 0 882.5 0.109375 1163.515625 0 1444.546875 C 0 1478.203125 7.9375 1508.015625 23.9375 1533.703125 C 40.390625 1560.140625 65.359375 1582.234375 99.15625 1599.625 C 261.0625 1682.984375 804.46875 1959.65625 912.96875 2016.5625 C 985.9375 2054.828125 1057.171875 2056.203125 1130.671875 2018.46875 C 1403.25 1878.578125 1676.171875 1739.28125 1948.859375 1599.53125 C 1982.640625 1582.15625 2007.609375 1560.046875 2024.0625 1533.640625 C 2040.046875 1507.9375 2048 1478.125 2048 1444.46875 C 2048 1444.46875 2048 882.5625 2047.890625 601.53125 "/>
<path style=" stroke:none;fill-rule:nonzero;fill:rgb(0%,26.666668%,50.980395%);fill-opacity:1;" d="M 1027.140625 1020.265625 L 23.9375 1533.703125 C 40.390625 1560.140625 65.359375 1582.234375 99.15625 1599.625 C 261.0625 1682.984375 804.46875 1959.65625 912.96875 2016.5625 C 985.9375 2054.828125 1057.171875 2056.203125 1130.671875 2018.46875 C 1403.25 1878.578125 1676.171875 1739.28125 1948.859375 1599.53125 C 1982.640625 1582.15625 2007.609375 1560.046875 2024.0625 1533.640625 L 1027.140625 1020.265625 "/>
<path style=" stroke:none;fill-rule:nonzero;fill:rgb(10.196079%,27.450982%,45.490196%);fill-opacity:1;" d="M 730 1172.359375 C 788.375 1262.9375 898.109375 1324.046875 1024 1324.046875 C 1150.65625 1324.046875 1261.03125 1262.171875 1319.109375 1170.609375 L 1027.140625 1020.265625 L 730 1172.359375 "/>
<path style=" stroke:none;fill-rule:nonzero;fill:rgb(0.392157%,34.509805%,61.176473%);fill-opacity:1;" d="M 2047.890625 601.53125 C 2047.875 567.125 2039.609375 536.734375 2022.859375 510.640625 L 1027.140625 1020.265625 L 2024.0625 1533.640625 C 2040.046875 1507.9375 2047.984375 1478.125 2048 1444.46875 C 2048 1444.46875 2048 882.5625 2047.890625 601.53125 "/>
<path style=" stroke:none;fill-rule:nonzero;fill:rgb(100%,100%,100%);fill-opacity:1;" d="M 1993.078125 1056.96875 L 1915.171875 1056.96875 L 1915.171875 1126.234375 L 1837.25 1126.234375 L 1837.25 1056.96875 L 1759.359375 1056.96875 L 1759.359375 987.734375 L 1837.25 987.734375 L 1837.25 918.484375 L 1915.171875 918.484375 L 1915.171875 987.734375 L 1993.078125 987.734375 Z M 1024 418.46875 C 1273.078125 418.46875 1490.859375 537.515625 1609.359375 715.0625 L 1612.90625 720.453125 L 1316.90625 871.96875 C 1258.234375 782.3125 1149.078125 721.984375 1024 721.984375 C 836.96875 721.984375 685.328125 856.75 685.328125 1023 C 685.328125 1077.375 701.640625 1128.34375 730 1172.359375 C 788.375 1262.9375 898.109375 1324.046875 1024 1324.046875 C 1149.265625 1324.046875 1258.59375 1263.515625 1317.171875 1173.625 L 1319.109375 1170.609375 L 1614.671875 1322.828125 C 1497.484375 1504.859375 1276.859375 1627.546875 1024 1627.546875 C 771.609375 1627.546875 551.328125 1505.34375 433.96875 1323.859375 C 376.671875 1235.25 343.890625 1132.546875 343.890625 1023 C 343.890625 689.140625 648.375 418.46875 1024 418.46875 Z M 1630.921875 918.484375 L 1630.921875 987.734375 L 1708.8125 987.734375 L 1708.8125 1056.96875 L 1630.921875 1056.96875 L 1630.921875 1126.234375 L 1553.015625 1126.234375 L 1553.015625 1056.96875 L 1475.109375 1056.96875 L 1475.109375 987.734375 L 1553.015625 987.734375 L 1553.015625 918.484375 Z M 1630.921875 918.484375 "/>
</g>
</svg>
