<?xml version="1.0" encoding="UTF-8"?>
<svg xmlns="http://www.w3.org/2000/svg" xmlns:xlink="http://www.w3.org/1999/xlink" width="2048px" height="2048px" viewBox="0 0 2048 2048" version="1.1">
<g id="surface1">
<path style=" stroke:none;fill-rule:nonzero;fill:rgb(14.901961%,30.19608%,89.411765%);fill-opacity:1;" d="M 1022.75 2042.828125 L 189.296875 1878.75 L 3.5625 401.46875 L 2044.4375 401.46875 L 1858.515625 1878.515625 Z M 1022.75 2042.828125 "/>
<path style=" stroke:none;fill-rule:nonzero;fill:rgb(16.078432%,39.607844%,94.509804%);fill-opacity:1;" d="M 1699.328125 1784.46875 L 1858.21875 522.25 L 1024 522.25 L 1024 1917.234375 Z M 1699.328125 1784.46875 "/>
<path style=" stroke:none;fill-rule:nonzero;fill:rgb(92.156863%,92.156863%,92.156863%);fill-opacity:1;" d="M 429.34375 1070.15625 L 452.25 1251.34375 L 1024 1251.34375 L 1024 1070.15625 Z M 429.34375 1070.15625 "/>
<path style=" stroke:none;fill-rule:nonzero;fill:rgb(92.156863%,92.156863%,92.156863%);fill-opacity:1;" d="M 383.34375 703.4375 L 406.5625 884.625 L 1024 884.625 L 1024 703.4375 Z M 383.34375 703.4375 "/>
<path style=" stroke:none;fill-rule:nonzero;fill:rgb(92.156863%,92.156863%,92.156863%);fill-opacity:1;" d="M 1024 1540.703125 L 1022.875 1540.921875 L 738.328125 1486.4375 L 720.140625 1341.9375 L 463.65625 1341.9375 L 499.453125 1626.421875 L 1022.828125 1729.453125 L 1024 1729.21875 Z M 1024 1540.703125 "/>
<path style=" stroke:none;fill-rule:nonzero;fill:rgb(0%,0%,0%);fill-opacity:1;" d="M 483.875 0 L 793.3125 0 L 793.3125 91.765625 L 613.28125 91.765625 L 613.28125 183.53125 L 793.3125 183.53125 L 793.3125 275.296875 L 483.875 275.296875 Z M 483.875 0 "/>
<path style=" stroke:none;fill-rule:nonzero;fill:rgb(0%,0%,0%);fill-opacity:1;" d="M 855.203125 0 L 1164.65625 0 L 1164.65625 79.796875 L 984.609375 79.796875 L 984.609375 95.75 L 1164.65625 95.75 L 1164.65625 279.296875 L 855.203125 279.296875 L 855.203125 195.5 L 1035.25 195.5 L 1035.25 179.546875 L 855.203125 179.546875 Z M 855.203125 0 "/>
<path style=" stroke:none;fill-rule:nonzero;fill:rgb(0%,0%,0%);fill-opacity:1;" d="M 1226.546875 0 L 1536 0 L 1536 79.796875 L 1355.953125 79.796875 L 1355.953125 95.75 L 1536 95.75 L 1536 279.296875 L 1226.546875 279.296875 L 1226.546875 195.5 L 1406.59375 195.5 L 1406.59375 179.546875 L 1226.546875 179.546875 Z M 1226.546875 0 "/>
<path style=" stroke:none;fill-rule:nonzero;fill:rgb(100%,100%,100%);fill-opacity:1;" d="M 1617.015625 1070.15625 L 1663.140625 703.4375 L 1023.109375 703.4375 L 1023.109375 884.625 L 1383.140625 884.625 L 1359.890625 1070.15625 L 1023.109375 1070.15625 L 1023.109375 1251.34375 L 1337.734375 1251.34375 L 1308.078125 1486.3125 L 1023.109375 1540.859375 L 1023.109375 1729.359375 L 1546.890625 1626.421875 L 1550.734375 1595.8125 L 1610.78125 1118.8125 Z M 1617.015625 1070.15625 "/>
</g>
</svg>
