<?xml version="1.0" encoding="UTF-8"?>
<svg xmlns="http://www.w3.org/2000/svg" xmlns:xlink="http://www.w3.org/1999/xlink" width="2048px" height="2048px" viewBox="0 0 2048 2048" version="1.1">
<g id="surface1">
<path style=" stroke:none;fill-rule:nonzero;fill:rgb(3.529412%,18.039216%,12.54902%);fill-opacity:1;" d="M 224 0 L 1824 0 C 1947.71875 0 2048 100.28125 2048 224 L 2048 1824 C 2048 1947.71875 1947.71875 2048 1824 2048 L 224 2048 C 100.28125 2048 0 1947.71875 0 1824 L 0 224 C 0 100.28125 100.28125 0 224 0 Z M 224 0 "/>
<path style=" stroke:none;fill-rule:nonzero;fill:rgb(100%,100%,99.215686%);fill-opacity:1;" d="M 1491.015625 753.578125 L 1491.015625 1283.390625 C 1491.015625 1465.953125 1477.65625 1553.5 1437.59375 1629.1875 C 1400.484375 1701.9375 1351.5 1747.921875 1250.59375 1798.390625 L 1038.359375 1697.46875 C 1139.28125 1649.984375 1188.25 1608.4375 1219.421875 1544.59375 C 1252.078125 1479.296875 1262.46875 1403.609375 1262.46875 1204.75 L 1262.46875 753.578125 Z M 1127.421875 400.625 L 1127.421875 1458.53125 C 1010.1875 1480.796875 924.09375 1489.703125 830.609375 1489.703125 C 551.59375 1489.703125 406.15625 1363.5625 406.15625 1121.640625 C 406.15625 888.640625 560.5 737.265625 799.4375 737.265625 C 836.53125 737.265625 864.734375 740.21875 898.875 749.125 L 898.875 400.625 Z M 821.703125 921.28125 C 705.9375 921.28125 639.15625 992.515625 639.15625 1117.171875 C 639.15625 1238.890625 702.984375 1305.671875 820.21875 1305.671875 C 845.4375 1305.671875 866.21875 1304.1875 898.875 1299.734375 L 898.875 933.140625 C 872.15625 924.25 849.90625 921.28125 821.703125 921.28125 Z M 1491.015625 401.84375 L 1491.015625 636.34375 L 1262.46875 636.34375 L 1262.46875 401.84375 Z M 1491.015625 401.84375 "/>
</g>
</svg>
