<?xml version="1.0" encoding="UTF-8"?>
<svg xmlns="http://www.w3.org/2000/svg" xmlns:xlink="http://www.w3.org/1999/xlink" width="2048px" height="2048px" viewBox="0 0 2048 2048" version="1.1">
<g id="surface1">
<path style=" stroke:none;fill-rule:nonzero;fill:rgb(87.058824%,29.803923%,21.176471%);fill-opacity:1;" d="M 2009.375 932.75 L 1115.1875 38.625 C 1063.734375 -12.875 980.203125 -12.875 928.6875 38.625 L 743 224.3125 L 978.546875 459.84375 C 1033.28125 441.359375 1096.046875 453.75 1139.6875 497.390625 C 1183.53125 541.296875 1195.84375 604.609375 1176.890625 659.515625 L 1403.890625 886.53125 C 1458.8125 867.609375 1522.1875 879.84375 1566.046875 923.78125 C 1627.34375 985.0625 1627.34375 1084.375 1566.046875 1145.703125 C 1504.71875 1207.03125 1405.40625 1207.03125 1344.0625 1145.703125 C 1297.953125 1099.546875 1286.546875 1031.828125 1309.90625 975.015625 L 1098.203125 763.3125 L 1098.171875 1320.421875 C 1113.125 1327.828125 1127.234375 1337.703125 1139.6875 1350.109375 C 1200.984375 1411.375 1200.984375 1510.703125 1139.6875 1572.0625 C 1078.359375 1633.375 979 1633.375 917.765625 1572.0625 C 856.453125 1510.703125 856.453125 1411.375 917.765625 1350.109375 C 932.90625 1334.984375 950.4375 1323.546875 969.125 1315.859375 L 969.125 753.5625 C 950.4375 745.921875 932.921875 734.546875 917.765625 719.3125 C 871.3125 672.9375 860.140625 604.78125 883.9375 547.75 L 651.765625 315.53125 L 38.65625 928.609375 C -12.875 980.15625 -12.875 1063.6875 38.65625 1115.1875 L 932.84375 2009.328125 C 984.3125 2060.84375 1067.828125 2060.84375 1119.375 2009.328125 L 2009.375 1119.34375 C 2060.875 1067.828125 2060.875 984.25 2009.375 932.75 "/>
</g>
</svg>
