<?xml version="1.0" encoding="UTF-8"?>
<svg xmlns="http://www.w3.org/2000/svg" xmlns:xlink="http://www.w3.org/1999/xlink" width="2048px" height="2048px" viewBox="0 0 2048 2048" version="1.1">
<g id="surface1">
<path style=" stroke:none;fill-rule:nonzero;fill:rgb(89.411765%,30.19608%,14.901961%);fill-opacity:1;" d="M 2044.4375 401.46875 L 1858.515625 1878.515625 L 1022.75 2042.828125 L 189.296875 1878.75 L 3.5625 401.46875 Z M 2044.4375 401.46875 "/>
<path style=" stroke:none;fill-rule:nonzero;fill:rgb(94.509804%,39.607844%,16.078432%);fill-opacity:1;" d="M 1024 1917.234375 L 1699.328125 1784.46875 L 1858.21875 522.25 L 1024 522.25 Z M 1024 1917.234375 "/>
<path style=" stroke:none;fill-rule:nonzero;fill:rgb(92.156863%,92.156863%,92.156863%);fill-opacity:1;" d="M 662.5625 884.625 L 1024 884.625 L 1024 703.4375 L 383.34375 703.4375 L 389.453125 752.046875 L 452.25 1251.34375 L 1024 1251.34375 L 1024 1070.15625 L 685.90625 1070.15625 Z M 662.5625 884.625 "/>
<path style=" stroke:none;fill-rule:nonzero;fill:rgb(92.156863%,92.156863%,92.156863%);fill-opacity:1;" d="M 720.140625 1341.9375 L 463.65625 1341.9375 L 499.453125 1626.421875 L 1022.828125 1729.453125 L 1024 1729.21875 L 1024 1540.703125 L 1022.875 1540.921875 L 738.328125 1486.4375 Z M 720.140625 1341.9375 "/>
<path style=" stroke:none;fill-rule:nonzero;fill:rgb(0%,0%,0%);fill-opacity:1;" d="M 193.453125 0 L 323.28125 0 L 323.28125 90.96875 L 442.0625 90.96875 L 442.0625 0 L 571.90625 0 L 571.90625 275.484375 L 442.0625 275.484375 L 442.0625 183.234375 L 323.296875 183.234375 L 323.296875 275.484375 L 193.453125 275.484375 Z M 193.453125 0 "/>
<path style=" stroke:none;fill-rule:nonzero;fill:rgb(0%,0%,0%);fill-opacity:1;" d="M 742.640625 91.359375 L 628.34375 91.359375 L 628.34375 0 L 986.859375 0 L 986.859375 91.359375 L 872.5 91.359375 L 872.5 275.484375 L 742.65625 275.484375 L 742.65625 91.359375 Z M 742.640625 91.359375 "/>
<path style=" stroke:none;fill-rule:nonzero;fill:rgb(0%,0%,0%);fill-opacity:1;" d="M 1043.75 0 L 1179.140625 0 L 1262.421875 96.796875 L 1345.625 0 L 1481.0625 0 L 1481.0625 275.484375 L 1351.75 275.484375 L 1351.75 138.9375 L 1262.421875 236.890625 L 1260.1875 236.890625 L 1170.796875 138.9375 L 1170.796875 275.484375 L 1043.75 275.484375 Z M 1043.75 0 "/>
<path style=" stroke:none;fill-rule:nonzero;fill:rgb(0%,0%,0%);fill-opacity:1;" d="M 1545.671875 0 L 1675.5625 0 L 1675.5625 184.421875 L 1858.15625 184.421875 L 1858.15625 275.484375 L 1545.671875 275.484375 Z M 1545.671875 0 "/>
<path style=" stroke:none;fill-rule:nonzero;fill:rgb(100%,100%,100%);fill-opacity:1;" d="M 1023.109375 1251.34375 L 1337.734375 1251.34375 L 1308.078125 1486.3125 L 1023.109375 1540.859375 L 1023.109375 1729.359375 L 1546.890625 1626.421875 L 1550.734375 1595.8125 L 1610.78125 1118.8125 L 1617.015625 1070.15625 L 1023.109375 1070.15625 Z M 1023.109375 1251.34375 "/>
<path style=" stroke:none;fill-rule:nonzero;fill:rgb(100%,100%,100%);fill-opacity:1;" d="M 1023.109375 884.1875 L 1023.109375 884.625 L 1640.265625 884.625 L 1645.390625 843.890625 L 1657.03125 752.046875 L 1663.140625 703.4375 L 1023.109375 703.4375 Z M 1023.109375 884.1875 "/>
</g>
</svg>
