<?xml version="1.0" encoding="UTF-8"?>
<svg xmlns="http://www.w3.org/2000/svg" xmlns:xlink="http://www.w3.org/1999/xlink" width="2048px" height="2048px" viewBox="0 0 2048 2048" version="1.1">
<g id="surface1">
<rect x="0" y="0" width="2048" height="2048" style="fill:rgb(96.862745%,87.450981%,11.764706%);fill-opacity:1;stroke:none;"/>
<path style=" stroke:none;fill-rule:nonzero;fill:rgb(0%,0%,0%);fill-opacity:1;" d="M 538.5 1711.453125 L 695.21875 1616.609375 C 725.453125 1670.21875 752.96875 1715.578125 818.9375 1715.578125 C 882.171875 1715.578125 922.046875 1690.84375 922.046875 1594.609375 L 922.046875 940.234375 L 1114.515625 940.234375 L 1114.515625 1597.34375 C 1114.515625 1796.671875 997.65625 1887.40625 827.1875 1887.40625 C 673.21875 1887.40625 583.859375 1807.671875 538.484375 1711.4375 "/>
<path style=" stroke:none;fill-rule:nonzero;fill:rgb(0%,0%,0%);fill-opacity:1;" d="M 1219.046875 1690.828125 L 1375.75 1600.109375 C 1417.015625 1667.46875 1470.625 1716.953125 1565.46875 1716.953125 C 1645.21875 1716.953125 1696.078125 1677.09375 1696.078125 1622.09375 C 1696.078125 1556.109375 1643.828125 1532.734375 1555.84375 1494.25 L 1507.75 1473.625 C 1368.890625 1414.515625 1276.78125 1340.28125 1276.78125 1183.5625 C 1276.78125 1039.203125 1386.75 929.21875 1558.609375 929.21875 C 1680.953125 929.21875 1768.9375 971.84375 1832.171875 1083.203125 L 1682.328125 1179.4375 C 1649.328125 1120.328125 1613.59375 1096.953125 1558.609375 1096.953125 C 1502.25 1096.953125 1466.5 1132.703125 1466.5 1179.4375 C 1466.5 1237.171875 1502.25 1260.546875 1584.71875 1296.296875 L 1632.828125 1316.90625 C 1796.421875 1387.03125 1888.53125 1458.5 1888.53125 1619.34375 C 1888.53125 1792.578125 1752.4375 1887.421875 1569.609375 1887.421875 C 1390.890625 1887.421875 1275.40625 1802.1875 1219.046875 1690.828125 "/>
</g>
</svg>
