<?xml version="1.0" encoding="UTF-8"?>
<svg xmlns="http://www.w3.org/2000/svg" xmlns:xlink="http://www.w3.org/1999/xlink" width="2048px" height="2048px" viewBox="0 0 2048 2048" version="1.1">
<g id="surface1">
<path style=" stroke:none;fill-rule:nonzero;fill:rgb(0%,45.882353%,56.078434%);fill-opacity:1;" d="M 609.234375 1351.421875 L 671.484375 1647.703125 C 685.46875 1714.96875 691.296875 1761.921875 688.96875 1788.6875 C 723 1654.9375 746.78125 1509.1875 760.3125 1351.421875 L 835.15625 1351.421875 C 802.984375 1608.25 760.53125 1794.890625 707.84375 1911.3125 C 666.796875 2001.03125 621.828125 2045.890625 572.859375 2045.890625 C 559.8125 2045.890625 543.71875 2040.09375 524.609375 2028.609375 L 524.609375 1966.703125 C 533.9375 1968.703125 544.890625 1969.78125 557.484375 1969.78125 C 580.328125 1969.78125 598.734375 1960.5 612.75 1941.953125 C 629.515625 1919.375 637.921875 1893.984375 637.921875 1865.84375 C 637.921875 1846.640625 631.359375 1807.203125 618.328125 1747.5625 L 531.609375 1351.421875 Z M 132.890625 1169.328125 L 246.90625 1679.609375 L 247.59375 1679.609375 L 362.296875 1169.328125 L 456.015625 1169.328125 C 476.53125 1422.390625 488.65625 1653.9375 492.375 1863.8125 L 413.359375 1863.8125 C 410.578125 1667.609375 402.890625 1483.125 390.296875 1310.3125 L 389.59375 1310.3125 L 269.28125 1863.8125 L 209.125 1863.8125 L 89.53125 1310.3125 L 88.828125 1310.3125 C 79.953125 1476.28125 74.375 1660.765625 72.046875 1863.8125 L 0 1863.8125 C 4.65625 1616.875 16.3125 1385.40625 34.953125 1169.328125 Z M 132.890625 1169.328125 "/>
<path style=" stroke:none;fill-rule:nonzero;fill:rgb(94.901961%,56.862748%,6.666667%);fill-opacity:1;" d="M 1409.984375 1159.03125 C 1532.625 1159.03125 1593.9375 1273.96875 1593.9375 1503.71875 C 1593.9375 1628.578125 1575.5 1722.875 1538.65625 1786.59375 C 1532.015625 1798.234375 1524.671875 1808.296875 1516.9375 1817.609375 L 1603.71875 1880.5625 L 1603.640625 1880.546875 L 1572.828125 1958.609375 L 1459.8125 1861.875 C 1441.078125 1870.015625 1420.46875 1874.078125 1398.015625 1874.078125 C 1337.796875 1874.078125 1292.828125 1848.328125 1263.09375 1796.90625 C 1230.453125 1740.03125 1214.140625 1650.46875 1214.140625 1528.40625 C 1214.140625 1404.25 1232.546875 1310.296875 1269.40625 1246.515625 C 1302.96875 1188.15625 1349.84375 1159.03125 1409.984375 1159.03125 Z M 1034.46875 1160.03125 C 1078.296875 1160.03125 1118.15625 1177.25 1154.046875 1211.53125 L 1135.8125 1271.125 C 1105.09375 1251.984375 1074.8125 1242.359375 1044.953125 1242.359375 C 1020.71875 1242.359375 1002.046875 1250.921875 989.03125 1268.140625 C 975.9375 1285.203125 967.84375 1307.15625 967.84375 1333.9375 C 967.84375 1375.0625 987.828125 1410.734375 1024.703125 1440.875 C 1034.625 1448.796875 1047.546875 1459.34375 1060.828125 1470.28125 L 1063.578125 1472.546875 C 1064.046875 1472.9375 1064.5 1473.3125 1064.96875 1473.6875 L 1067.71875 1475.96875 C 1068.171875 1476.34375 1068.640625 1476.71875 1069.09375 1477.109375 L 1071.84375 1479.375 C 1099.765625 1502.46875 1126.046875 1524.515625 1126.046875 1524.515625 C 1162.921875 1562.921875 1181.296875 1603.859375 1181.296875 1671.3125 C 1181.296875 1730.203125 1166.59375 1778.5625 1137.265625 1816.390625 C 1107.921875 1854.046875 1068.484375 1872.9375 1019.109375 1872.9375 C 972.9375 1872.9375 928.171875 1851.203125 884.828125 1808.09375 L 905.109375 1748.4375 C 942.40625 1775.875 976.171875 1789.5625 1006.484375 1789.5625 C 1034.921875 1789.5625 1057.171875 1780.265625 1073.28125 1761.859375 C 1089.34375 1743.34375 1098.96875 1717.515625 1098.96875 1684.734375 C 1098.96875 1643.5 1079.421875 1608.25 1043.546875 1578.6875 C 1034.234375 1571.171875 1022.3125 1561.359375 1009.96875 1551.125 L 1007.21875 1548.84375 C 1002.171875 1544.65625 997.09375 1540.421875 992.109375 1536.265625 L 989.40625 1534.015625 C 965.1875 1513.8125 944.25 1496.140625 944.25 1496.140625 C 908.390625 1457.671875 890.421875 1416.390625 890.421875 1348.359375 C 890.421875 1292.109375 903.828125 1246.640625 930.609375 1212.03125 C 957.4375 1177.375 992.0625 1160.03125 1034.46875 1160.03125 Z M 1738.046875 1169.328125 L 1738.046875 1778.375 L 1887 1778.375 L 1887 1863.8125 L 1662.515625 1863.8125 L 1662.515625 1169.328125 Z M 1969.78125 1778.640625 L 1969.78125 1793.078125 L 1953.390625 1793.078125 L 1953.390625 1863.734375 L 1940.875 1863.734375 L 1940.875 1793.078125 L 1923.859375 1793.078125 L 1923.859375 1778.640625 Z M 2000.015625 1778.640625 L 2015.734375 1836.640625 L 2030.1875 1778.640625 L 2047.921875 1778.640625 L 2047.921875 1863.734375 L 2036.125 1863.734375 L 2036.125 1798.96875 L 2019.6875 1863.734375 L 2011.171875 1863.734375 L 1994.71875 1798.96875 L 1994.078125 1798.96875 L 1994.078125 1863.734375 L 1982.921875 1863.734375 L 1982.921875 1778.640625 Z M 1402.28125 1244.4375 C 1330.015625 1244.4375 1293.859375 1331.921875 1293.859375 1506.796875 C 1293.859375 1606.96875 1303.4375 1679.609375 1322.5625 1724.875 C 1340.28125 1766.78125 1368.015625 1787.6875 1405.78125 1787.6875 C 1478.046875 1787.6875 1514.203125 1699.515625 1514.203125 1523.234375 C 1514.203125 1424.46875 1504.625 1352.453125 1485.515625 1307.171875 C 1467.78125 1265.359375 1440.0625 1244.4375 1402.28125 1244.4375 Z M 1402.28125 1244.4375 "/>
<path style=" stroke:none;fill-rule:nonzero;fill:rgb(0%,45.882353%,56.078434%);fill-opacity:1;" d="M 1212.875 43.03125 C 1236.84375 -43.375 1320.65625 22.0625 1353.1875 52.25 C 1361.171875 59.796875 1370.3125 75.75 1379.453125 81.65625 C 1393.703125 82.46875 1407.953125 84.109375 1422.234375 84.984375 C 1449.03125 94.21875 1474.125 101.765625 1495.234375 119.40625 C 1593.359375 204.171875 1657.21875 290.546875 1716 433.234375 C 1728.5625 463.453125 1734.828125 496.15625 1745.09375 528.859375 C 1759.328125 577.609375 1775.328125 628.78125 1791.859375 674.875 C 1799.265625 696.71875 1804.984375 721.03125 1815.265625 739.484375 C 1819.28125 747.921875 1830.671875 750.40625 1837.484375 755.453125 C 1856.3125 769.75 1879.125 780.609375 1896.84375 797.390625 C 1929.921875 827.640625 1961.90625 863.703125 1990.96875 900.609375 C 2001.8125 914.859375 2009.1875 935.03125 2019.515625 950.09375 L 2019.515625 957.703125 C 2010.34375 961.828125 2001.21875 966.046875 1992.078125 969.4375 C 1972.109375 976.96875 1954.4375 975.265625 1935.0625 982.796875 C 1923.09375 987.875 1908.234375 994.609375 1895.6875 996.3125 C 1896.25 997.140625 1896.84375 998.015625 1896.84375 998.015625 C 1904.234375 1028.96875 1944.1875 1054.15625 1962.453125 1072.65625 C 1984.640625 1096.15625 2005.203125 1124.65625 2021.765625 1157.375 C 2027.46875 1165.734375 2033.1875 1173.328125 2038.890625 1181.65625 C 2042.859375 1190.09375 2043.984375 1201.015625 2048 1208.546875 L 2048 1211.078125 C 2043.546875 1208.78125 2040.34375 1204.375 2037.296875 1199.78125 L 2035.484375 1197 C 2033.6875 1194.234375 2031.84375 1191.53125 2029.765625 1189.296875 C 2017.171875 1176.671875 2004.671875 1161.578125 1992.078125 1149.859375 C 1970.4375 1129.703125 1945.328125 1118.015625 1923.09375 1097.78125 C 1910.53125 1086.03125 1898.546875 1072.65625 1886.5625 1059.234375 C 1875.703125 1047.453125 1863.75 1024.828125 1856.921875 1008.046875 C 1852.90625 998.78125 1852.359375 987.875 1847.765625 981.171875 C 1848.578125 969.96875 1855.578125 966.640625 1862.640625 963.90625 L 1864.265625 963.28125 C 1866.6875 962.359375 1869.078125 961.421875 1871.15625 960.203125 C 1900.8125 941.734375 1936.171875 935.03125 1981.828125 936.703125 C 1980.109375 919.890625 1951.578125 898.9375 1942.46875 888.859375 C 1924.1875 869.53125 1904.84375 849.359375 1885.4375 831.765625 C 1875.171875 822.546875 1857.453125 815.828125 1846.078125 808.296875 C 1830.671875 799.0625 1796.4375 789.828125 1787.90625 772.25 C 1773.40625 744.515625 1762.984375 711.4375 1752.875 678.015625 L 1750.125 668.890625 C 1749.203125 665.859375 1748.28125 662.8125 1747.359375 659.78125 C 1735.40625 619.546875 1720.5625 577.59375 1708.578125 536.390625 C 1702.3125 516.296875 1699.4375 498.65625 1692.578125 479.375 C 1650.953125 361.09375 1589.34375 262.046875 1514.640625 192.40625 C 1490.09375 169.734375 1462.71875 148.765625 1432.5 134.515625 C 1415.375 126.921875 1394.828125 131.125 1376.578125 125.296875 L 1364.578125 125.296875 C 1354.328125 121.0625 1345.765625 105.125 1337.78125 96.71875 C 1320.109375 79.125 1302.4375 67.3125 1281.3125 54.765625 C 1273.90625 49.71875 1252.78125 38 1245.40625 47.234375 C 1240.828125 48.921875 1238.515625 51.453125 1237.390625 58.171875 C 1232.84375 68.203125 1236.84375 83.328125 1239.671875 92.578125 C 1248.234375 119.390625 1260.203125 135.328125 1271.0625 158 C 1280.734375 178.09375 1292.734375 200.75 1299.59375 222.609375 C 1314.375 269.578125 1321.265625 321.625 1334.953125 368.609375 C 1340.046875 386.265625 1348.078125 406.359375 1355.46875 422.296875 C 1361.734375 434.9375 1373.140625 444.078125 1376.578125 460.09375 C 1383.453125 476.875 1366.296875 532.25 1362.328125 549.84375 C 1347.46875 618.65625 1350.34375 714.3125 1367.453125 773.96875 C 1367.765625 775 1368.0625 776.0625 1368.359375 777.109375 L 1369.28125 780.296875 C 1375.53125 802.140625 1382.21875 825.671875 1398.828125 831.78125 C 1399.96875 830.109375 1398.828125 830.984375 1401.09375 830.109375 C 1405.109375 783.9375 1406.25 739.46875 1417.09375 703.34375 C 1423.359375 680.765625 1435.875 664.796875 1444.453125 646.359375 C 1450.171875 651.375 1450.171875 666.53125 1453.59375 676.546875 C 1461.015625 702.546875 1468.984375 731.046875 1478.140625 757.125 C 1496.921875 810.8125 1518.046875 862.875 1542 909.84375 C 1550.015625 926.609375 1561.40625 945.078125 1571.671875 960.203125 C 1576.234375 966.046875 1581.359375 969.421875 1584.796875 976.953125 L 1585.921875 976.953125 L 1585.921875 979.484375 C 1568.8125 970.234375 1557.953125 944.265625 1544.3125 929.09375 C 1518.609375 900.59375 1487.84375 857.796875 1470.125 816.71875 C 1462.71875 793.140625 1454.703125 770.546875 1446.734375 747.09375 L 1446.734375 745.390625 C 1443.3125 752.09375 1444.453125 758.75 1442.75 768.890625 C 1435.34375 810.8125 1441.046875 858.640625 1415.375 873.71875 C 1386.28125 891.390625 1364.578125 845.21875 1355.46875 824.25 C 1326.375 754.609375 1318.390625 637.140625 1338.921875 542.328125 C 1343.484375 521.328125 1344.109375 496.15625 1352.0625 479.390625 C 1350.34375 464.25 1342.390625 460.109375 1337.78125 450.8125 C 1329.796875 434.953125 1322.953125 416.46875 1316.703125 398.84375 C 1304.703125 364.421875 1296.15625 323.296875 1287.03125 286.375 C 1283.03125 271.296875 1281.875 256.171875 1277.875 241.890625 C 1271.0625 220.109375 1258.5 198.25 1248.8125 178.984375 C 1235.6875 151.28125 1197.46875 97.609375 1212.875 43.03125 Z M 1399.953125 207.421875 C 1401.484375 209.671875 1403.328125 211.625 1405.234375 213.5625 L 1407.53125 215.875 C 1410.578125 218.984375 1413.546875 222.25 1415.359375 226.71875 C 1418.25 232.625 1418.78125 238.453125 1422.234375 244.359375 C 1422.234375 264.53125 1418.25 277.9375 1410.203125 286.296875 C 1410.203125 286.296875 1409.65625 287.171875 1409.09375 288 C 1404.53125 274.546875 1400.53125 261.1875 1395.9375 247.75 C 1390.28125 236.03125 1382.28125 226.71875 1377.6875 213.328125 L 1376.578125 213.328125 L 1376.578125 211.640625 C 1383.453125 209.15625 1390.28125 207.421875 1399.953125 207.421875 Z M 1399.953125 207.421875 "/>
</g>
</svg>
