<?xml version="1.0" encoding="UTF-8"?>
<svg xmlns="http://www.w3.org/2000/svg" xmlns:xlink="http://www.w3.org/1999/xlink" width="2048px" height="2048px" viewBox="0 0 2048 2048" version="1.1">
<defs>
<linearGradient id="linear0" gradientUnits="userSpaceOnUse" x1="0.129594" y1="0.120394" x2="0.796388" y2="0.782009" gradientTransform="matrix(1514.3125,0,0,1524.328125,1.156248,0.578124)">
<stop offset="0" style="stop-color:rgb(21.960784%,49.411765%,72.156863%);stop-opacity:1;"/>
<stop offset="1" style="stop-color:rgb(21.176471%,41.176471%,58.039216%);stop-opacity:1;"/>
</linearGradient>
<linearGradient id="linear1" gradientUnits="userSpaceOnUse" x1="0.191275" y1="0.205792" x2="0.907415" y2="0.88429" gradientTransform="matrix(1514.328125,0,0,1524.328125,529.90625,516.65625)">
<stop offset="0" style="stop-color:rgb(100%,87.843137%,32.156863%);stop-opacity:1;"/>
<stop offset="1" style="stop-color:rgb(100%,76.470588%,19.215686%);stop-opacity:1;"/>
</linearGradient>
</defs>
<g id="surface1">
<path style=" stroke:none;fill-rule:nonzero;fill:url(#linear0);" d="M 1015.328125 0.578125 C 496.671875 0.578125 529.0625 226.390625 529.0625 226.390625 L 529.640625 460.3125 L 1024.578125 460.3125 L 1024.578125 530.546875 L 333.046875 530.546875 C 333.046875 530.546875 1.15625 492.765625 1.15625 1018.140625 C 1.15625 1543.53125 290.84375 1524.90625 290.84375 1524.90625 L 463.71875 1524.90625 L 463.71875 1281.09375 C 463.71875 1281.09375 454.40625 990.28125 748.78125 990.28125 L 1239.671875 990.28125 C 1239.671875 990.28125 1515.46875 994.765625 1515.46875 722.6875 L 1515.46875 272.828125 C 1515.46875 272.828125 1557.34375 0.578125 1015.328125 0.578125 Z M 742.421875 157.890625 C 791.65625 157.890625 831.453125 197.84375 831.453125 247.28125 C 831.453125 296.71875 791.65625 336.671875 742.421875 336.671875 C 693.171875 336.671875 653.375 296.71875 653.375 247.28125 C 653.375 197.84375 693.171875 157.890625 742.421875 157.890625 Z M 742.421875 157.890625 "/>
<path style=" stroke:none;fill-rule:nonzero;fill:url(#linear1);" d="M 1030.0625 2040.984375 C 1548.71875 2040.984375 1516.328125 1815.171875 1516.328125 1815.171875 L 1515.75 1581.25 L 1020.8125 1581.25 L 1020.8125 1511.015625 L 1712.34375 1511.015625 C 1712.34375 1511.015625 2044.234375 1548.796875 2044.234375 1023.421875 C 2044.234375 498.03125 1754.546875 516.65625 1754.546875 516.65625 L 1581.65625 516.65625 L 1581.65625 760.46875 C 1581.65625 760.46875 1590.984375 1051.28125 1296.609375 1051.28125 L 805.71875 1051.28125 C 805.71875 1051.28125 529.90625 1046.796875 529.90625 1318.875 L 529.90625 1768.734375 C 529.90625 1768.734375 488.03125 2040.984375 1030.0625 2040.984375 Z M 1302.96875 1883.671875 C 1253.71875 1883.671875 1213.921875 1843.71875 1213.921875 1794.28125 C 1213.921875 1744.84375 1253.71875 1704.890625 1302.96875 1704.890625 C 1352.21875 1704.890625 1392.015625 1744.84375 1392.015625 1794.28125 C 1392.015625 1843.71875 1352.21875 1883.671875 1302.96875 1883.671875 Z M 1302.96875 1883.671875 "/>
</g>
</svg>
