<?xml version="1.0" encoding="UTF-8"?>
<svg xmlns="http://www.w3.org/2000/svg" xmlns:xlink="http://www.w3.org/1999/xlink" width="2048px" height="2048px" viewBox="0 0 2048 2048" version="1.1">
<g id="surface1">
<path style=" stroke:none;fill-rule:nonzero;fill:rgb(93.333334%,29.803923%,17.254902%);fill-opacity:1;" d="M 1022.609375 0 L 1022.609375 297.640625 L 468.8125 754.953125 C 178.984375 997.703125 179.015625 1388.203125 468.90625 1635.359375 L 477.78125 1642.796875 C 773.9375 1891.984375 1260.09375 1891.984375 1561.84375 1642.796875 C 1860.578125 1400.671875 1863.5625 1004.765625 1570.8125 755.09375 L 1561.84375 747.5625 L 1746.25 595.28125 C 2148.578125 927.53125 2148.578125 1460.515625 1746.25 1795.078125 C 1352.296875 2127.328125 704.09375 2127.328125 301.75 1795.078125 C -96.5625 1466.15625 -100.546875 938.21875 289.796875 605.3125 L 301.75 595.28125 Z M 1385.828125 336.859375 C 1459.890625 336.859375 1519.9375 386.453125 1519.9375 447.609375 C 1519.9375 508.78125 1459.890625 558.359375 1385.828125 558.359375 C 1311.75 558.359375 1251.703125 508.78125 1251.703125 447.609375 C 1251.703125 386.453125 1311.75 336.859375 1385.828125 336.859375 Z M 1385.828125 336.859375 "/>
</g>
</svg>
