<?xml version="1.0" encoding="UTF-8"?>
<svg xmlns="http://www.w3.org/2000/svg" xmlns:xlink="http://www.w3.org/1999/xlink" width="2048px" height="2048px" viewBox="0 0 2048 2048" version="1.1">
<g id="surface1">
<path style=" stroke:none;fill-rule:nonzero;fill:rgb(0%,84.705883%,100%);fill-opacity:1;" d="M 1683.859375 663.125 C 1662.625 654.90625 1640.609375 647.140625 1617.9375 639.796875 C 1621.671875 622.71875 1625.078125 605.875 1628.125 589.296875 C 1678.03125 317.296875 1645.40625 98.1875 1533.984375 26.03125 C 1427.140625 -43.140625 1252.40625 28.984375 1075.9375 201.421875 C 1058.96875 218 1041.953125 235.5625 1024.953125 253.953125 C 1013.609375 241.78125 1002.296875 230.015625 991.015625 218.765625 C 806.0625 34.390625 620.6875 -43.3125 509.375 29.046875 C 402.640625 98.421875 371.03125 304.421875 415.953125 562.1875 C 420.296875 587.09375 425.359375 612.515625 431.09375 638.375 C 404.859375 646.734375 379.53125 655.640625 355.296875 665.125 C 138.46875 750.015625 0 883.03125 0 1021.015625 C 0 1163.53125 148.65625 1306.46875 374.5 1393.140625 C 392.3125 1399.984375 410.8125 1406.4375 429.859375 1412.578125 C 423.6875 1440.546875 418.296875 1467.9375 413.78125 1494.671875 C 370.953125 1747.96875 404.40625 1949.09375 510.859375 2018.03125 C 620.8125 2089.234375 805.34375 2016.046875 985.046875 1839.6875 C 999.25 1825.75 1013.5 1810.96875 1027.78125 1795.46875 C 1046.28125 1815.484375 1064.765625 1834.421875 1083.140625 1852.1875 C 1257.203125 2020.359375 1429.109375 2088.265625 1535.453125 2019.125 C 1645.3125 1947.734375 1681 1731.671875 1634.65625 1468.796875 C 1631.125 1448.71875 1627 1428.203125 1622.375 1407.328125 C 1635.328125 1403.03125 1648.046875 1398.59375 1660.453125 1393.96875 C 1895.25 1306.625 2048 1165.4375 2048 1021.015625 C 2048 882.53125 1905.0625 748.609375 1683.859375 663.125 Z M 1632.9375 1300.734375 C 1621.75 1304.890625 1610.25 1308.90625 1598.546875 1312.8125 C 1572.625 1220.6875 1537.640625 1122.71875 1494.84375 1021.5 C 1535.6875 922.6875 1569.3125 825.96875 1594.515625 734.4375 C 1615.453125 741.25 1635.796875 748.421875 1655.390625 756 C 1844.90625 829.25 1960.515625 937.5625 1960.515625 1021.015625 C 1960.515625 1109.90625 1835.65625 1225.3125 1632.9375 1300.734375 Z M 1548.828125 1487.875 C 1569.328125 1604.109375 1572.25 1709.203125 1558.671875 1791.359375 C 1546.484375 1865.1875 1521.953125 1914.40625 1491.625 1934.125 C 1427.078125 1976.0625 1289.046875 1921.546875 1140.203125 1777.71875 C 1123.140625 1761.234375 1105.953125 1743.625 1088.703125 1725 C 1146.40625 1654.125 1204.09375 1571.75 1260.375 1480.25 C 1359.375 1470.390625 1452.921875 1454.265625 1537.75 1432.25 C 1541.921875 1451.171875 1545.640625 1469.734375 1548.828125 1487.875 Z M 698.203125 1926.875 C 635.15625 1951.875 584.921875 1952.59375 554.5625 1932.9375 C 489.96875 1891.09375 463.109375 1729.609375 499.75 1512.984375 C 503.9375 1488.171875 508.9375 1462.703125 514.6875 1436.640625 C 598.59375 1457.484375 691.4375 1472.46875 790.6875 1481.5 C 847.34375 1571.03125 906.6875 1653.3125 966.484375 1725.375 C 953.421875 1739.53125 940.40625 1753.015625 927.46875 1765.71875 C 848.015625 1843.703125 768.390625 1899.046875 698.203125 1926.875 Z M 402.78125 1300.1875 C 302.921875 1261.859375 220.453125 1212.046875 163.921875 1157.703125 C 113.125 1108.859375 87.484375 1060.359375 87.484375 1021.015625 C 87.484375 937.28125 198.671875 830.484375 384.09375 757.890625 C 406.59375 749.078125 430.15625 740.78125 454.59375 732.984375 C 480.21875 826.59375 513.84375 924.453125 554.40625 1023.40625 C 513.3125 1123.84375 479.21875 1223.25 453.34375 1317.953125 C 435.921875 1312.328125 419.03125 1306.40625 402.78125 1300.1875 Z M 501.8125 543.328125 C 463.328125 322.46875 488.890625 155.875 553.21875 114.0625 C 621.734375 69.53125 773.234375 133.03125 932.921875 292.21875 C 943.125 302.40625 953.375 313.046875 963.65625 324.0625 C 904.140625 395.8125 845.34375 477.484375 789.1875 566.484375 C 692.859375 576.5 600.671875 592.609375 515.890625 614.171875 C 510.5625 590.09375 505.84375 566.453125 501.8125 543.328125 Z M 1385.234375 788.25 C 1364.96875 748.953125 1344.15625 710.578125 1322.953125 673.25 C 1388.296875 682.53125 1450.90625 694.84375 1509.703125 709.90625 C 1492.046875 773.421875 1470.046875 839.84375 1444.140625 907.921875 C 1425.578125 868.3125 1405.921875 828.390625 1385.234375 788.25 Z M 1024.984375 394.28125 C 1065.328125 443.359375 1105.75 498.171875 1145.5 557.640625 C 1105.4375 555.515625 1064.890625 554.40625 1024 554.40625 C 983.5 554.40625 943.25 555.484375 903.4375 557.578125 C 943.234375 498.65625 983.984375 443.921875 1024.984375 394.28125 Z M 662.421875 788.9375 C 642.171875 828.34375 622.890625 868.0625 604.609375 907.84375 C 579.125 840 557.328125 773.28125 539.53125 708.875 C 597.953125 694.1875 660.265625 682.1875 725.203125 673.078125 C 703.6875 710.75 682.71875 749.40625 662.421875 788.921875 Z M 727.0625 1375.953125 C 659.984375 1367.5625 596.734375 1356.171875 538.3125 1341.890625 C 556.40625 1276.328125 578.6875 1208.1875 604.703125 1138.875 C 623.03125 1178.640625 642.390625 1218.359375 662.765625 1257.859375 C 683.515625 1298.109375 705 1337.515625 727.0625 1375.953125 Z M 1027.390625 1654.6875 C 985.9375 1604.453125 944.5625 1548.890625 904.171875 1489.109375 C 943.390625 1490.84375 983.375 1491.71875 1024 1491.71875 C 1065.75 1491.71875 1107.015625 1490.671875 1147.625 1488.640625 C 1107.75 1549.484375 1067.484375 1605.140625 1027.390625 1654.6875 Z M 1444.984375 1135.34375 C 1472.359375 1205.40625 1495.4375 1273.1875 1513.75 1337.640625 C 1454.375 1352.84375 1390.265625 1365.09375 1322.71875 1374.203125 C 1343.96875 1336.375 1364.953125 1297.34375 1385.578125 1257.1875 C 1406.4375 1216.5625 1426.25 1175.890625 1444.984375 1135.34375 Z M 1309.796875 1208.109375 C 1277.78125 1270.4375 1244.921875 1329.9375 1211.546875 1386.09375 C 1150.78125 1390.96875 1087.984375 1393.484375 1024 1393.484375 C 960.265625 1393.484375 898.265625 1391.265625 838.578125 1386.921875 C 803.859375 1330.015625 770.28125 1270.34375 738.46875 1208.65625 L 738.484375 1208.65625 C 706.75 1147.125 677.546875 1085.078125 651.09375 1023.375 C 677.546875 961.53125 706.671875 899.421875 738.21875 838 L 738.203125 838.015625 C 769.828125 776.4375 803.125 717.046875 837.515625 660.5 C 898.421875 655.34375 960.875 652.640625 1024 652.640625 C 1087.40625 652.640625 1149.9375 655.359375 1210.828125 660.578125 C 1244.703125 716.703125 1277.75 775.890625 1309.515625 837.484375 C 1341.625 899.765625 1371.125 961.46875 1397.796875 1021.984375 C 1371.203125 1083.53125 1341.765625 1145.859375 1309.796875 1208.109375 Z M 1490.28125 111.140625 C 1558.859375 155.546875 1585.53125 334.640625 1542.4375 569.46875 C 1539.6875 584.453125 1536.59375 599.71875 1533.234375 615.1875 C 1448.265625 593.171875 1356 576.796875 1259.40625 566.625 C 1203.125 476.640625 1144.8125 394.84375 1086.28125 324.03125 C 1102.015625 307.03125 1117.734375 290.8125 1133.375 275.515625 C 1284.578125 127.78125 1425.890625 69.453125 1490.28125 111.140625 Z M 1024 815.671875 C 1125 815.671875 1206.875 907.609375 1206.875 1021.015625 C 1206.875 1134.421875 1125 1226.359375 1024 1226.359375 C 923 1226.359375 841.125 1134.421875 841.125 1021.015625 C 841.125 907.609375 923 815.671875 1024 815.671875 Z M 1024 815.671875 "/>
</g>
</svg>
