<?xml version="1.0" encoding="UTF-8"?>
<svg xmlns="http://www.w3.org/2000/svg" xmlns:xlink="http://www.w3.org/1999/xlink" width="2048px" height="2048px" viewBox="0 0 2048 2048" version="1.1">
<g id="surface1">
<path style=" stroke:none;fill-rule:nonzero;fill:rgb(19.215687%,47.058824%,77.64706%);fill-opacity:1;" d="M 160 0 L 1888 0 C 1976.359375 0 2048 71.640625 2048 160 L 2048 1888 C 2048 1976.359375 1976.359375 2048 1888 2048 L 160 2048 C 71.640625 2048 0 1976.359375 0 1888 L 0 160 C 0 71.640625 71.640625 0 160 0 Z M 160 0 "/>
<path style=" stroke:none;fill-rule:nonzero;fill:rgb(100%,100%,100%);fill-opacity:1;" d="M 1204.140625 1603.796875 L 1204.140625 1824.765625 C 1240.078125 1843.171875 1282.578125 1856.984375 1331.640625 1866.1875 C 1380.71875 1875.40625 1432.421875 1880 1486.796875 1880 C 1539.765625 1880 1590.109375 1874.9375 1637.78125 1864.8125 C 1685.46875 1854.6875 1727.28125 1837.984375 1763.203125 1814.75 C 1799.140625 1791.5 1827.59375 1761.125 1848.5625 1723.59375 C 1869.515625 1686.09375 1880 1639.71875 1880 1584.46875 C 1880 1544.421875 1874.015625 1509.3125 1862.03125 1479.171875 C 1850.0625 1449.015625 1832.78125 1422.203125 1810.203125 1398.734375 C 1787.625 1375.25 1760.5625 1354.1875 1729.015625 1335.546875 C 1697.453125 1316.90625 1661.859375 1299.296875 1622.234375 1282.734375 C 1593.203125 1270.75 1567.1875 1259.140625 1544.140625 1247.859375 C 1521.109375 1236.578125 1501.53125 1225.078125 1485.40625 1213.328125 C 1469.28125 1201.59375 1456.84375 1189.15625 1448.09375 1176.046875 C 1439.34375 1162.921875 1434.953125 1148.078125 1434.953125 1131.5 C 1434.953125 1116.3125 1438.875 1102.625 1446.703125 1090.421875 C 1454.53125 1078.21875 1465.59375 1067.75 1479.875 1059.015625 C 1494.15625 1050.25 1511.65625 1043.46875 1532.40625 1038.625 C 1553.125 1033.796875 1576.171875 1031.390625 1601.5 1031.390625 C 1619.9375 1031.390625 1639.40625 1032.765625 1659.890625 1035.53125 C 1680.40625 1038.28125 1701.015625 1042.546875 1721.75 1048.296875 C 1742.484375 1054.0625 1762.625 1061.296875 1782.21875 1070.0625 C 1801.796875 1078.796875 1819.875 1088.921875 1836.46875 1100.4375 L 1836.46875 893.96875 C 1802.828125 881.09375 1766.09375 871.53125 1726.234375 865.3125 C 1686.390625 859.109375 1640.65625 856 1589.0625 856 C 1536.546875 856 1486.796875 861.640625 1439.796875 872.921875 C 1392.8125 884.1875 1351.453125 901.796875 1315.75 925.734375 C 1280.046875 949.6875 1251.828125 980.171875 1231.09375 1017.234375 C 1210.375 1054.28125 1200 1098.59375 1200 1150.15625 C 1200 1215.96875 1219 1272.140625 1257.015625 1318.625 C 1295.03125 1365.125 1352.71875 1404.484375 1430.125 1436.703125 C 1460.53125 1449.140625 1488.859375 1461.328125 1515.125 1473.296875 C 1541.390625 1485.265625 1564.078125 1497.703125 1583.1875 1510.578125 C 1602.3125 1523.46875 1617.40625 1537.515625 1628.453125 1552.703125 C 1639.515625 1567.890625 1645.046875 1585.15625 1645.046875 1604.5 C 1645.046875 1618.765625 1641.578125 1632 1634.671875 1644.203125 C 1627.765625 1656.390625 1617.28125 1666.984375 1603.234375 1675.953125 C 1589.1875 1684.9375 1571.671875 1691.953125 1550.71875 1697.015625 C 1529.75 1702.078125 1505.21875 1704.609375 1477.109375 1704.609375 C 1429.203125 1704.609375 1381.75 1696.21875 1334.765625 1679.40625 C 1287.765625 1662.609375 1244.21875 1637.40625 1204.140625 1603.796875 Z M 835.859375 1053.9375 L 1120 1053.9375 L 1120 872 L 328 872 L 328 1053.9375 L 610.75 1053.9375 L 610.75 1864 L 835.859375 1864 Z M 835.859375 1053.9375 "/>
</g>
</svg>
